STARTFONT 2.1
COMMENT
COMMENT Converted from OpenType font "RussoOne-Regular.ttf" by "otf2bdf 3.0".
COMMENT
FONT -FreeType-Russo One-Medium-R-Normal--17-120-100-100-P-96-ISO10646-1
SIZE 12 100 100
FONTBOUNDINGBOX 25 21 -4 -5
STARTPROPERTIES 19
FOUNDRY "FreeType"
FAMILY_NAME "Russo One"
WEIGHT_NAME "Medium"
SLANT "R"
SETWIDTH_NAME "Normal"
ADD_STYLE_NAME ""
PIXEL_SIZE 17
POINT_SIZE 120
RESOLUTION_X 100
RESOLUTION_Y 100
SPACING "P"
AVERAGE_WIDTH 96
CHARSET_REGISTRY "ISO10646"
CHARSET_ENCODING "1"
FONT_ASCENT 15
FONT_DESCENT 4
COPYRIGHT "Copyright (c) 2011-2012, Jovanny Lemonad (jovanny.ru), with Reserved Font Name "Russo""
_OTF_FONTFILE "RussoOne-Regular.ttf"
_OTF_PSNAME "RussoOne-Regular"
ENDPROPERTIES
CHARS 410
STARTCHAR 0020
ENCODING 32
SWIDTH 300 0
DWIDTH 5 0
BBX 0 0 0 0
BITMAP
ENDCHAR
STARTCHAR 0021
ENCODING 33
SWIDTH 300 0
DWIDTH 5 0
BBX 3 12 1 0
BITMAP
E0
E0
E0
E0
E0
E0
E0
E0
00
E0
E0
E0
ENDCHAR
STARTCHAR 0022
ENCODING 34
SWIDTH 420 0
DWIDTH 7 0
BBX 5 4 1 8
BITMAP
D8
D8
D8
D8
ENDCHAR
STARTCHAR 0023
ENCODING 35
SWIDTH 720 0
DWIDTH 12 0
BBX 12 12 0 0
BITMAP
0CE0
1CE0
1CE0
7FF0
7FF0
19C0
39C0
FFF0
FFF0
3380
3380
7380
ENDCHAR
STARTCHAR 0024
ENCODING 36
SWIDTH 660 0
DWIDTH 11 0
BBX 9 15 1 -2
BITMAP
1C00
7F00
FF00
E000
E000
E000
FF00
FF80
0380
0380
0380
FF80
FF00
1C00
1C00
ENDCHAR
STARTCHAR 0025
ENCODING 37
SWIDTH 900 0
DWIDTH 15 0
BBX 14 12 0 0
BITMAP
7C70
EC60
CCE0
CDC0
CD80
7F80
037C
076C
06EC
0EEC
1C6C
1C7C
ENDCHAR
STARTCHAR 0026
ENCODING 38
SWIDTH 720 0
DWIDTH 12 0
BBX 11 12 1 0
BITMAP
7F80
FF80
F000
E000
E1C0
7FE0
FFE0
E1C0
E1C0
E1C0
FFC0
FFC0
ENDCHAR
STARTCHAR 0027
ENCODING 39
SWIDTH 240 0
DWIDTH 4 0
BBX 2 4 1 8
BITMAP
C0
C0
C0
C0
ENDCHAR
STARTCHAR 0028
ENCODING 40
SWIDTH 360 0
DWIDTH 6 0
BBX 5 18 1 -4
BITMAP
10
38
70
70
E0
E0
E0
E0
E0
E0
E0
E0
E0
E0
70
70
38
10
ENDCHAR
STARTCHAR 0029
ENCODING 41
SWIDTH 360 0
DWIDTH 6 0
BBX 5 18 0 -4
BITMAP
40
E0
60
70
70
38
38
38
38
38
38
38
38
70
70
60
E0
40
ENDCHAR
STARTCHAR 002A
ENCODING 42
SWIDTH 480 0
DWIDTH 8 0
BBX 8 8 0 4
BITMAP
18
5A
FF
7E
7E
FF
5A
18
ENDCHAR
STARTCHAR 002B
ENCODING 43
SWIDTH 540 0
DWIDTH 9 0
BBX 8 8 1 2
BITMAP
38
38
38
FF
FF
38
38
38
ENDCHAR
STARTCHAR 002C
ENCODING 44
SWIDTH 240 0
DWIDTH 4 0
BBX 3 5 1 -2
BITMAP
E0
E0
E0
C0
C0
ENDCHAR
STARTCHAR 002D
ENCODING 45
SWIDTH 480 0
DWIDTH 8 0
BBX 6 2 1 5
BITMAP
FC
FC
ENDCHAR
STARTCHAR 002E
ENCODING 46
SWIDTH 240 0
DWIDTH 4 0
BBX 3 3 1 0
BITMAP
E0
E0
E0
ENDCHAR
STARTCHAR 002F
ENCODING 47
SWIDTH 480 0
DWIDTH 8 0
BBX 8 12 0 0
BITMAP
07
0E
0E
0E
1C
1C
38
38
78
70
70
E0
ENDCHAR
STARTCHAR 0030
ENCODING 48
SWIDTH 660 0
DWIDTH 11 0
BBX 10 12 1 0
BITMAP
7F80
FF80
E3C0
E1C0
E1C0
E1C0
E1C0
E1C0
E1C0
E3C0
FF80
7F80
ENDCHAR
STARTCHAR 0031
ENCODING 49
SWIDTH 420 0
DWIDTH 7 0
BBX 6 12 0 0
BITMAP
3C
FC
FC
1C
1C
1C
1C
1C
1C
1C
1C
1C
ENDCHAR
STARTCHAR 0032
ENCODING 50
SWIDTH 600 0
DWIDTH 10 0
BBX 10 12 0 0
BITMAP
7F00
7F80
0380
03C0
0380
0780
1F00
3E00
7800
F000
FFC0
FFC0
ENDCHAR
STARTCHAR 0033
ENCODING 51
SWIDTH 600 0
DWIDTH 10 0
BBX 10 12 0 0
BITMAP
7F00
7F80
0380
03C0
0380
3F00
3F80
01C0
01C0
01C0
FFC0
FF80
ENDCHAR
STARTCHAR 0034
ENCODING 52
SWIDTH 660 0
DWIDTH 11 0
BBX 11 12 0 0
BITMAP
0F00
0E00
1C00
3C00
3800
79C0
71C0
FFE0
FFE0
FFE0
01C0
01C0
ENDCHAR
STARTCHAR 0035
ENCODING 53
SWIDTH 600 0
DWIDTH 10 0
BBX 10 12 0 0
BITMAP
7F80
7F80
7000
7000
7000
7F80
7FC0
01C0
01C0
01C0
FFC0
FF80
ENDCHAR
STARTCHAR 0036
ENCODING 54
SWIDTH 660 0
DWIDTH 11 0
BBX 9 12 1 0
BITMAP
7F80
FF80
E180
E000
EF00
FF80
FF80
E380
E380
E380
FF80
7F00
ENDCHAR
STARTCHAR 0037
ENCODING 55
SWIDTH 600 0
DWIDTH 10 0
BBX 9 12 0 0
BITMAP
FF80
FF80
0380
0380
0780
0700
0F00
0E00
0E00
1C00
1C00
3C00
ENDCHAR
STARTCHAR 0038
ENCODING 56
SWIDTH 660 0
DWIDTH 11 0
BBX 10 12 1 0
BITMAP
7F80
FF80
E3C0
E3C0
E380
7F00
FF80
E1C0
E1C0
E1C0
FFC0
FF80
ENDCHAR
STARTCHAR 0039
ENCODING 57
SWIDTH 660 0
DWIDTH 11 0
BBX 10 12 0 0
BITMAP
7F80
7FC0
F1C0
E1C0
E1C0
FFC0
7FC0
3DC0
01C0
01C0
7FC0
7F80
ENDCHAR
STARTCHAR 003A
ENCODING 58
SWIDTH 240 0
DWIDTH 4 0
BBX 3 9 1 0
BITMAP
E0
E0
E0
00
00
00
E0
E0
E0
ENDCHAR
STARTCHAR 003B
ENCODING 59
SWIDTH 240 0
DWIDTH 4 0
BBX 3 11 1 -2
BITMAP
E0
E0
E0
00
00
00
E0
E0
E0
C0
C0
ENDCHAR
STARTCHAR 003C
ENCODING 60
SWIDTH 540 0
DWIDTH 9 0
BBX 8 9 0 0
BITMAP
01
07
3F
FC
E0
FC
3F
07
01
ENDCHAR
STARTCHAR 003D
ENCODING 61
SWIDTH 480 0
DWIDTH 8 0
BBX 7 6 1 3
BITMAP
FE
FE
00
00
FE
FE
ENDCHAR
STARTCHAR 003E
ENCODING 62
SWIDTH 540 0
DWIDTH 9 0
BBX 7 9 1 0
BITMAP
80
E0
F8
3E
06
3E
F8
E0
80
ENDCHAR
STARTCHAR 003F
ENCODING 63
SWIDTH 600 0
DWIDTH 10 0
BBX 10 12 0 0
BITMAP
FF00
FF80
8380
03C0
0380
0F80
3F00
3C00
0000
3C00
3C00
3C00
ENDCHAR
STARTCHAR 0040
ENCODING 64
SWIDTH 780 0
DWIDTH 13 0
BBX 12 12 1 0
BITMAP
7FE0
FFE0
E070
C7F0
CFF0
DFF0
DC70
CFF0
CF70
E000
FFC0
7FC0
ENDCHAR
STARTCHAR 0041
ENCODING 65
SWIDTH 720 0
DWIDTH 12 0
BBX 12 12 0 0
BITMAP
0F00
0F00
1F80
1F80
1F80
39C0
39C0
39E0
7FE0
7FE0
F0F0
E070
ENDCHAR
STARTCHAR 0042
ENCODING 66
SWIDTH 720 0
DWIDTH 12 0
BBX 11 12 1 0
BITMAP
FF80
FFC0
E3C0
E1C0
E1C0
FF80
FFC0
E1C0
E1E0
E1E0
FFC0
FF80
ENDCHAR
STARTCHAR 0043
ENCODING 67
SWIDTH 660 0
DWIDTH 11 0
BBX 9 12 1 0
BITMAP
7F80
FF80
F000
E000
E000
E000
E000
E000
E000
E000
FF80
7F80
ENDCHAR
STARTCHAR 0044
ENCODING 68
SWIDTH 720 0
DWIDTH 12 0
BBX 11 12 1 0
BITMAP
FF80
FFC0
E3C0
E1E0
E1E0
E1E0
E1E0
E1E0
E1E0
E1C0
FFC0
FF80
ENDCHAR
STARTCHAR 0045
ENCODING 69
SWIDTH 660 0
DWIDTH 11 0
BBX 9 12 1 0
BITMAP
FF80
FF80
E000
E000
E000
FF00
FF00
E000
E000
E000
FF80
FF80
ENDCHAR
STARTCHAR 0046
ENCODING 70
SWIDTH 660 0
DWIDTH 11 0
BBX 9 12 1 0
BITMAP
FF80
FF80
E000
E000
E000
FF00
FF00
FF00
E000
E000
E000
E000
ENDCHAR
STARTCHAR 0047
ENCODING 71
SWIDTH 720 0
DWIDTH 12 0
BBX 10 12 1 0
BITMAP
7F80
FF80
F000
E000
E000
E7C0
E7C0
E1C0
E1C0
E1C0
FFC0
7FC0
ENDCHAR
STARTCHAR 0048
ENCODING 72
SWIDTH 720 0
DWIDTH 12 0
BBX 10 12 1 0
BITMAP
E1C0
E1C0
E1C0
E1C0
E1C0
FFC0
FFC0
E1C0
E1C0
E1C0
E1C0
E1C0
ENDCHAR
STARTCHAR 0049
ENCODING 73
SWIDTH 420 0
DWIDTH 7 0
BBX 6 12 1 0
BITMAP
FC
FC
70
70
70
70
70
70
70
70
FC
FC
ENDCHAR
STARTCHAR 004A
ENCODING 74
SWIDTH 480 0
DWIDTH 8 0
BBX 7 12 0 0
BITMAP
3E
3E
0E
0E
0E
0E
0E
0E
0E
0E
FE
FC
ENDCHAR
STARTCHAR 004B
ENCODING 75
SWIDTH 660 0
DWIDTH 11 0
BBX 10 12 1 0
BITMAP
E1C0
E3C0
E380
E780
E700
FE00
FE00
E700
E780
E380
E3C0
E1C0
ENDCHAR
STARTCHAR 004C
ENCODING 76
SWIDTH 600 0
DWIDTH 10 0
BBX 9 12 1 0
BITMAP
E000
E000
E000
E000
E000
E000
E000
E000
E000
E000
FF80
FF80
ENDCHAR
STARTCHAR 004D
ENCODING 77
SWIDTH 900 0
DWIDTH 15 0
BBX 13 12 1 0
BITMAP
E038
F078
F878
F8F8
FCF8
FDF8
EFF8
EFB8
E738
E738
E038
E038
ENDCHAR
STARTCHAR 004E
ENCODING 78
SWIDTH 720 0
DWIDTH 12 0
BBX 10 12 1 0
BITMAP
E1C0
F1C0
F9C0
F9C0
FDC0
FDC0
EFC0
E7C0
E7C0
E3C0
E3C0
E1C0
ENDCHAR
STARTCHAR 004F
ENCODING 79
SWIDTH 720 0
DWIDTH 12 0
BBX 11 12 1 0
BITMAP
7FC0
FFC0
E1E0
E0E0
E0E0
E0E0
E0E0
E0E0
E0E0
E1E0
FFC0
7FC0
ENDCHAR
STARTCHAR 0050
ENCODING 80
SWIDTH 720 0
DWIDTH 12 0
BBX 11 12 1 0
BITMAP
FF80
FFC0
E1C0
E1E0
E1E0
E1E0
FFC0
FFC0
FF00
E000
E000
E000
ENDCHAR
STARTCHAR 0051
ENCODING 81
SWIDTH 720 0
DWIDTH 12 0
BBX 11 15 1 -3
BITMAP
7FC0
FFC0
E1E0
E0E0
E0E0
E0E0
E0E0
E0E0
E0E0
E1E0
FFC0
7FC0
0E00
0F00
0700
ENDCHAR
STARTCHAR 0052
ENCODING 82
SWIDTH 720 0
DWIDTH 12 0
BBX 11 12 1 0
BITMAP
FF80
FFC0
E1C0
E1E0
E1E0
E1E0
FFC0
FFC0
E780
E380
E1C0
E1E0
ENDCHAR
STARTCHAR 0053
ENCODING 83
SWIDTH 660 0
DWIDTH 11 0
BBX 10 12 1 0
BITMAP
7F80
FF80
E000
E000
E000
FF80
FFC0
01C0
01C0
01C0
FFC0
FF80
ENDCHAR
STARTCHAR 0054
ENCODING 84
SWIDTH 660 0
DWIDTH 11 0
BBX 10 12 0 0
BITMAP
FFC0
FFC0
0E00
0E00
0E00
0E00
0E00
0E00
0E00
0E00
0E00
0E00
ENDCHAR
STARTCHAR 0055
ENCODING 85
SWIDTH 780 0
DWIDTH 13 0
BBX 11 12 1 0
BITMAP
E0E0
E0E0
E0E0
E0E0
E0E0
E0E0
E0E0
E0E0
E0E0
E1E0
FFC0
7FC0
ENDCHAR
STARTCHAR 0056
ENCODING 86
SWIDTH 720 0
DWIDTH 12 0
BBX 12 12 0 0
BITMAP
E070
F0F0
70E0
70E0
79E0
39C0
39C0
1F80
1F80
1F80
0F00
0F00
ENDCHAR
STARTCHAR 0057
ENCODING 87
SWIDTH 1020 0
DWIDTH 17 0
BBX 17 12 0 0
BITMAP
E1C780
E1C700
F3C700
73E700
73EF00
736E00
3F6E00
3F7E00
3E7E00
3E3C00
1E3C00
1C3C00
ENDCHAR
STARTCHAR 0058
ENCODING 88
SWIDTH 660 0
DWIDTH 11 0
BBX 11 12 0 0
BITMAP
F0E0
71C0
7BC0
3B80
1F00
1F00
1F00
1F00
3B80
7BC0
71C0
F0E0
ENDCHAR
STARTCHAR 0059
ENCODING 89
SWIDTH 660 0
DWIDTH 11 0
BBX 12 12 0 0
BITMAP
E0F0
F0E0
71C0
79C0
3B80
3F80
1F00
1F00
0E00
0E00
0E00
0E00
ENDCHAR
STARTCHAR 005A
ENCODING 90
SWIDTH 600 0
DWIDTH 10 0
BBX 10 12 0 0
BITMAP
FFC0
FFC0
03C0
0780
0700
0F00
1E00
3C00
7800
F000
FFC0
FFC0
ENDCHAR
STARTCHAR 005B
ENCODING 91
SWIDTH 360 0
DWIDTH 6 0
BBX 5 18 1 -4
BITMAP
F8
F8
F8
E0
E0
E0
E0
E0
E0
E0
E0
E0
E0
E0
E0
F8
F8
F8
ENDCHAR
STARTCHAR 005C
ENCODING 92
SWIDTH 480 0
DWIDTH 8 0
BBX 8 12 0 0
BITMAP
E0
60
70
70
38
38
1C
1C
1C
0E
0E
07
ENDCHAR
STARTCHAR 005D
ENCODING 93
SWIDTH 360 0
DWIDTH 6 0
BBX 5 18 0 -4
BITMAP
F8
F8
F8
38
38
38
38
38
38
38
38
38
38
38
38
F8
F8
F8
ENDCHAR
STARTCHAR 005E
ENCODING 94
SWIDTH 540 0
DWIDTH 9 0
BBX 9 5 0 7
BITMAP
1C00
3C00
3600
7700
E380
ENDCHAR
STARTCHAR 005F
ENCODING 95
SWIDTH 480 0
DWIDTH 8 0
BBX 6 2 1 -3
BITMAP
FC
FC
ENDCHAR
STARTCHAR 0060
ENCODING 96
SWIDTH 240 0
DWIDTH 4 0
BBX 4 3 0 9
BITMAP
E0
60
30
ENDCHAR
STARTCHAR 0061
ENCODING 97
SWIDTH 600 0
DWIDTH 10 0
BBX 9 9 0 0
BITMAP
7F80
7F80
0380
3F80
7F80
F380
E380
7F80
7D80
ENDCHAR
STARTCHAR 0062
ENCODING 98
SWIDTH 660 0
DWIDTH 11 0
BBX 9 12 1 0
BITMAP
E000
E000
E000
FF00
FF80
E380
E380
E380
E380
E380
FF80
FF00
ENDCHAR
STARTCHAR 0063
ENCODING 99
SWIDTH 540 0
DWIDTH 9 0
BBX 8 9 1 0
BITMAP
7F
FF
E0
E0
E0
E0
E0
FF
FF
ENDCHAR
STARTCHAR 0064
ENCODING 100
SWIDTH 660 0
DWIDTH 11 0
BBX 9 12 1 0
BITMAP
0380
0380
0380
7F80
FF80
E380
E380
E380
E380
E780
FF80
FB80
ENDCHAR
STARTCHAR 0065
ENCODING 101
SWIDTH 600 0
DWIDTH 10 0
BBX 9 9 1 0
BITMAP
FF00
FF00
E380
E380
FF80
FF80
E000
FF00
FF00
ENDCHAR
STARTCHAR 0066
ENCODING 102
SWIDTH 480 0
DWIDTH 8 0
BBX 8 12 0 0
BITMAP
3F
3F
38
38
FE
FE
38
38
38
38
38
38
ENDCHAR
STARTCHAR 0067
ENCODING 103
SWIDTH 660 0
DWIDTH 11 0
BBX 9 12 1 -3
BITMAP
7F80
FF80
E380
E380
E380
E380
FF80
FF80
7B80
0380
FF80
FF00
ENDCHAR
STARTCHAR 0068
ENCODING 104
SWIDTH 660 0
DWIDTH 11 0
BBX 9 12 1 0
BITMAP
E000
E000
E000
FF00
FF80
E380
E380
E380
E380
E380
E380
E380
ENDCHAR
STARTCHAR 0069
ENCODING 105
SWIDTH 300 0
DWIDTH 5 0
BBX 5 12 0 0
BITMAP
38
38
00
F8
F8
F8
38
38
38
38
38
38
ENDCHAR
STARTCHAR 006A
ENCODING 106
SWIDTH 300 0
DWIDTH 5 0
BBX 6 15 -2 -3
BITMAP
1C
1C
00
1C
1C
1C
1C
1C
1C
1C
1C
1C
1C
FC
F8
ENDCHAR
STARTCHAR 006B
ENCODING 107
SWIDTH 600 0
DWIDTH 10 0
BBX 9 12 1 0
BITMAP
E000
E000
E000
E380
E700
E700
FE00
FE00
EE00
E700
E700
E380
ENDCHAR
STARTCHAR 006C
ENCODING 108
SWIDTH 360 0
DWIDTH 6 0
BBX 4 12 1 0
BITMAP
E0
E0
E0
E0
E0
E0
E0
E0
E0
E0
F0
70
ENDCHAR
STARTCHAR 006D
ENCODING 109
SWIDTH 960 0
DWIDTH 16 0
BBX 14 9 1 0
BITMAP
FF78
FFFC
E79C
E71C
E71C
E71C
E71C
E71C
E71C
ENDCHAR
STARTCHAR 006E
ENCODING 110
SWIDTH 660 0
DWIDTH 11 0
BBX 9 9 1 0
BITMAP
FF00
FF80
E380
E380
E380
E380
E380
E380
E380
ENDCHAR
STARTCHAR 006F
ENCODING 111
SWIDTH 660 0
DWIDTH 11 0
BBX 9 9 1 0
BITMAP
FF00
FF80
E380
E380
E380
E380
E380
FF80
FF00
ENDCHAR
STARTCHAR 0070
ENCODING 112
SWIDTH 660 0
DWIDTH 11 0
BBX 9 12 1 -3
BITMAP
FF00
FF80
E380
E380
E380
E380
E380
FF80
FF00
E000
E000
E000
ENDCHAR
STARTCHAR 0071
ENCODING 113
SWIDTH 660 0
DWIDTH 11 0
BBX 9 12 1 -3
BITMAP
7F80
FF80
E380
E380
E380
E380
E380
FF80
FF80
0380
0380
0380
ENDCHAR
STARTCHAR 0072
ENCODING 114
SWIDTH 480 0
DWIDTH 8 0
BBX 6 9 1 0
BITMAP
FC
FC
F0
E0
E0
E0
E0
E0
E0
ENDCHAR
STARTCHAR 0073
ENCODING 115
SWIDTH 600 0
DWIDTH 10 0
BBX 10 9 0 0
BITMAP
7F80
7F80
E000
FF00
7F80
3F80
01C0
7F80
7F80
ENDCHAR
STARTCHAR 0074
ENCODING 116
SWIDTH 420 0
DWIDTH 7 0
BBX 7 11 0 0
BITMAP
30
70
FC
FC
70
70
70
70
70
7E
3E
ENDCHAR
STARTCHAR 0075
ENCODING 117
SWIDTH 660 0
DWIDTH 11 0
BBX 9 9 1 0
BITMAP
E380
E380
E380
E380
E380
E380
E380
FF80
7F80
ENDCHAR
STARTCHAR 0076
ENCODING 118
SWIDTH 600 0
DWIDTH 10 0
BBX 10 9 0 0
BITMAP
E1C0
E380
7380
7380
3700
3F00
3F00
1E00
1E00
ENDCHAR
STARTCHAR 0077
ENCODING 119
SWIDTH 900 0
DWIDTH 15 0
BBX 15 9 0 0
BITMAP
E38E
E39E
77DC
77DC
76DC
3EF8
3EF8
3C78
3C70
ENDCHAR
STARTCHAR 0078
ENCODING 120
SWIDTH 540 0
DWIDTH 9 0
BBX 10 9 0 0
BITMAP
F380
7780
7F00
3E00
1E00
3E00
7F00
7780
E3C0
ENDCHAR
STARTCHAR 0079
ENCODING 121
SWIDTH 600 0
DWIDTH 10 0
BBX 10 12 0 -3
BITMAP
E1C0
F380
7380
7380
3F00
3F00
1F00
1E00
1E00
1E00
7C00
7800
ENDCHAR
STARTCHAR 007A
ENCODING 122
SWIDTH 540 0
DWIDTH 9 0
BBX 9 9 0 0
BITMAP
FF80
FF80
0780
0E00
1C00
3800
7000
FF80
FF80
ENDCHAR
STARTCHAR 007B
ENCODING 123
SWIDTH 360 0
DWIDTH 6 0
BBX 6 18 0 -4
BITMAP
1C
3C
3C
38
38
38
38
78
F0
F0
78
38
38
38
38
3C
3C
1C
ENDCHAR
STARTCHAR 007C
ENCODING 124
SWIDTH 300 0
DWIDTH 5 0
BBX 3 15 1 -3
BITMAP
E0
E0
E0
E0
E0
E0
E0
E0
E0
E0
E0
E0
E0
E0
E0
ENDCHAR
STARTCHAR 007D
ENCODING 125
SWIDTH 360 0
DWIDTH 6 0
BBX 6 18 0 -4
BITMAP
E0
F0
F8
38
38
38
38
38
3C
3C
38
38
38
38
38
F8
F0
E0
ENDCHAR
STARTCHAR 007E
ENCODING 126
SWIDTH 540 0
DWIDTH 9 0
BBX 8 4 0 4
BITMAP
31
7F
FF
4E
ENDCHAR
STARTCHAR 00A0
ENCODING 160
SWIDTH 300 0
DWIDTH 5 0
BBX 0 0 0 0
BITMAP
ENDCHAR
STARTCHAR 00A1
ENCODING 161
SWIDTH 300 0
DWIDTH 5 0
BBX 3 12 1 -3
BITMAP
E0
E0
E0
00
E0
E0
E0
E0
E0
E0
E0
E0
ENDCHAR
STARTCHAR 00A2
ENCODING 162
SWIDTH 540 0
DWIDTH 9 0
BBX 8 13 1 -2
BITMAP
18
18
7F
FF
E0
E0
E0
E0
E0
FF
FF
18
18
ENDCHAR
STARTCHAR 00A3
ENCODING 163
SWIDTH 600 0
DWIDTH 10 0
BBX 9 12 0 0
BITMAP
3F80
3F80
7800
7000
7000
FE00
FE00
7000
7000
7000
FF80
FF80
ENDCHAR
STARTCHAR 00A4
ENCODING 164
SWIDTH 720 0
DWIDTH 12 0
BBX 12 12 0 0
BITMAP
7FE0
7FF0
70F0
7070
7070
7070
FFE0
FFC0
FF80
FF80
7000
7000
ENDCHAR
STARTCHAR 00A5
ENCODING 165
SWIDTH 660 0
DWIDTH 11 0
BBX 12 12 0 0
BITMAP
E0F0
F0E0
71C0
79C0
3B80
3F80
3FC0
1F00
3FC0
3FC0
0E00
0E00
ENDCHAR
STARTCHAR 00A6
ENCODING 166
SWIDTH 300 0
DWIDTH 5 0
BBX 3 15 1 -3
BITMAP
E0
E0
E0
E0
E0
E0
00
00
00
E0
E0
E0
E0
E0
E0
ENDCHAR
STARTCHAR 00A7
ENCODING 167
SWIDTH 600 0
DWIDTH 10 0
BBX 9 15 1 -3
BITMAP
7F00
FF00
E000
E000
FE00
FF00
E780
E780
F700
FF00
7F00
0780
8780
FF00
FF00
ENDCHAR
STARTCHAR 00A8
ENCODING 168
SWIDTH 420 0
DWIDTH 7 0
BBX 7 3 0 11
BITMAP
EE
EE
EE
ENDCHAR
STARTCHAR 00A9
ENCODING 169
SWIDTH 840 0
DWIDTH 14 0
BBX 14 12 0 0
BITMAP
3FF8
7FFC
E01C
E7CC
EFCC
EE0C
EE0C
EE4C
EFCC
E01C
7FFC
3FF8
ENDCHAR
STARTCHAR 00AA
ENCODING 170
SWIDTH 360 0
DWIDTH 6 0
BBX 6 6 0 6
BITMAP
78
8C
7C
FC
CC
FC
ENDCHAR
STARTCHAR 00AB
ENCODING 171
SWIDTH 600 0
DWIDTH 10 0
BBX 10 9 0 0
BITMAP
0880
1DC0
3B80
7700
EE00
7700
3B80
1DC0
0880
ENDCHAR
STARTCHAR 00AC
ENCODING 172
SWIDTH 540 0
DWIDTH 9 0
BBX 8 4 1 4
BITMAP
FF
FF
FF
07
ENDCHAR
STARTCHAR 00AD
ENCODING 173
SWIDTH 480 0
DWIDTH 8 0
BBX 6 2 1 5
BITMAP
FC
FC
ENDCHAR
STARTCHAR 00AE
ENCODING 174
SWIDTH 840 0
DWIDTH 14 0
BBX 14 12 0 0
BITMAP
3FF8
7FFC
E01C
EFCC
EEEC
EEEC
EFCC
EFCC
EECC
E03C
7FFC
3FF8
ENDCHAR
STARTCHAR 00AF
ENCODING 175
SWIDTH 300 0
DWIDTH 5 0
BBX 5 2 0 11
BITMAP
F8
F8
ENDCHAR
STARTCHAR 00B0
ENCODING 176
SWIDTH 420 0
DWIDTH 7 0
BBX 6 6 0 6
BITMAP
7C
EC
CC
CC
CC
7C
ENDCHAR
STARTCHAR 00B1
ENCODING 177
SWIDTH 540 0
DWIDTH 9 0
BBX 8 9 1 1
BITMAP
38
38
38
FF
FF
38
38
FE
FE
ENDCHAR
STARTCHAR 00B2
ENCODING 178
SWIDTH 360 0
DWIDTH 6 0
BBX 6 6 0 6
BITMAP
78
1C
18
38
E0
FC
ENDCHAR
STARTCHAR 00B3
ENCODING 179
SWIDTH 360 0
DWIDTH 6 0
BBX 6 6 0 6
BITMAP
F8
18
78
78
0C
F8
ENDCHAR
STARTCHAR 00B4
ENCODING 180
SWIDTH 240 0
DWIDTH 4 0
BBX 4 3 0 11
BITMAP
70
60
E0
ENDCHAR
STARTCHAR 00B5
ENCODING 181
SWIDTH 660 0
DWIDTH 11 0
BBX 9 12 1 -3
BITMAP
E380
E380
E380
E380
E380
E380
E780
FF80
FB80
E000
E000
E000
ENDCHAR
STARTCHAR 00B6
ENCODING 182
SWIDTH 720 0
DWIDTH 12 0
BBX 11 15 0 -3
BITMAP
7FE0
7FE0
FDC0
FDC0
FDC0
FDC0
7DC0
3DC0
0DC0
0DC0
0DC0
0DC0
0DC0
0DC0
0DC0
ENDCHAR
STARTCHAR 00B7
ENCODING 183
SWIDTH 300 0
DWIDTH 5 0
BBX 3 2 1 5
BITMAP
E0
E0
ENDCHAR
STARTCHAR 00B8
ENCODING 184
SWIDTH 240 0
DWIDTH 4 0
BBX 4 3 0 -3
BITMAP
E0
30
F0
ENDCHAR
STARTCHAR 00B9
ENCODING 185
SWIDTH 240 0
DWIDTH 4 0
BBX 4 6 0 6
BITMAP
70
F0
30
30
30
30
ENDCHAR
STARTCHAR 00BA
ENCODING 186
SWIDTH 360 0
DWIDTH 6 0
BBX 6 6 0 6
BITMAP
7C
EC
CC
CC
CC
7C
ENDCHAR
STARTCHAR 00BB
ENCODING 187
SWIDTH 600 0
DWIDTH 10 0
BBX 10 9 0 0
BITMAP
6200
E700
7700
3B80
1DC0
3B80
7700
E700
4200
ENDCHAR
STARTCHAR 00BC
ENCODING 188
SWIDTH 780 0
DWIDTH 13 0
BBX 12 12 0 0
BITMAP
70E0
F1C0
3180
3380
3700
3700
0EE0
0CC0
1DB0
19F0
39F0
7030
ENDCHAR
STARTCHAR 00BD
ENCODING 189
SWIDTH 780 0
DWIDTH 13 0
BBX 13 12 0 0
BITMAP
70E0
F1C0
3180
3380
3700
3700
0EF0
0C18
1C38
1870
38C0
70F8
ENDCHAR
STARTCHAR 00BE
ENCODING 190
SWIDTH 840 0
DWIDTH 14 0
BBX 14 12 0 0
BITMAP
F870
18E0
78C0
79C0
0D80
FB80
0370
0760
0ED8
0CFC
1CFC
3818
ENDCHAR
STARTCHAR 00BF
ENCODING 191
SWIDTH 600 0
DWIDTH 10 0
BBX 10 12 0 -3
BITMAP
0E00
0E00
0E00
0000
0E00
3E00
7C00
E000
E000
F040
7FC0
7FC0
ENDCHAR
STARTCHAR 00C0
ENCODING 192
SWIDTH 720 0
DWIDTH 12 0
BBX 12 15 0 0
BITMAP
1C00
0E00
0600
0F00
0F00
1F80
1F80
1F80
39C0
39C0
39E0
7FE0
7FE0
F0F0
E070
ENDCHAR
STARTCHAR 00C1
ENCODING 193
SWIDTH 720 0
DWIDTH 12 0
BBX 12 16 0 0
BITMAP
0380
0700
0700
0000
0F00
0F00
1F80
1F80
1F80
39C0
39C0
39E0
7FE0
7FE0
F0F0
E070
ENDCHAR
STARTCHAR 00C2
ENCODING 194
SWIDTH 720 0
DWIDTH 12 0
BBX 12 16 0 0
BITMAP
0600
0F00
1D80
0000
0F00
0F00
1F80
1F80
1F80
39C0
39C0
39E0
7FE0
7FE0
F0F0
E070
ENDCHAR
STARTCHAR 00C3
ENCODING 195
SWIDTH 720 0
DWIDTH 12 0
BBX 12 15 0 0
BITMAP
0C80
1F80
0B00
0F00
0F00
1F80
1F80
1F80
39C0
39C0
39E0
7FE0
7FE0
F0F0
E070
ENDCHAR
STARTCHAR 00C4
ENCODING 196
SWIDTH 720 0
DWIDTH 12 0
BBX 12 15 0 0
BITMAP
1D80
1D80
1D80
0F00
0F00
1F80
1F80
1F80
39C0
39C0
39E0
7FE0
7FE0
F0F0
E070
ENDCHAR
STARTCHAR 00C5
ENCODING 197
SWIDTH 720 0
DWIDTH 12 0
BBX 12 16 0 0
BITMAP
0F00
0900
0F00
0000
0F00
0F00
1F80
1F80
1F80
39C0
39C0
39E0
7FE0
7FE0
F0F0
E070
ENDCHAR
STARTCHAR 00C6
ENCODING 198
SWIDTH 1020 0
DWIDTH 17 0
BBX 17 12 0 0
BITMAP
0FFF80
0FFF80
1CE000
1CE000
1CE000
38FE00
38FE00
38E000
7FE000
7FE000
F0FF80
E0FF80
ENDCHAR
STARTCHAR 00C7
ENCODING 199
SWIDTH 660 0
DWIDTH 11 0
BBX 9 15 1 -3
BITMAP
7F80
FF80
F000
E000
E000
E000
E000
E000
E000
E000
FF80
7F80
0C00
0600
1E00
ENDCHAR
STARTCHAR 00C8
ENCODING 200
SWIDTH 660 0
DWIDTH 11 0
BBX 9 15 1 0
BITMAP
3800
1C00
0C00
FF80
FF80
E000
E000
E000
FF00
FF00
E000
E000
E000
FF80
FF80
ENDCHAR
STARTCHAR 00C9
ENCODING 201
SWIDTH 660 0
DWIDTH 11 0
BBX 9 16 1 0
BITMAP
0F00
0E00
0C00
0000
FF80
FF80
E000
E000
E000
FF00
FF00
E000
E000
E000
FF80
FF80
ENDCHAR
STARTCHAR 00CA
ENCODING 202
SWIDTH 660 0
DWIDTH 11 0
BBX 9 16 1 0
BITMAP
1C00
1E00
3700
4000
FF80
FF80
E000
E000
E000
FF00
FF00
E000
E000
E000
FF80
FF80
ENDCHAR
STARTCHAR 00CB
ENCODING 203
SWIDTH 660 0
DWIDTH 11 0
BBX 9 16 1 0
BITMAP
7700
7700
7700
0000
FF80
FF80
E000
E000
E000
FF00
FF00
E000
E000
E000
FF80
FF80
ENDCHAR
STARTCHAR 00CC
ENCODING 204
SWIDTH 420 0
DWIDTH 7 0
BBX 6 15 1 0
BITMAP
E0
60
30
FC
FC
70
70
70
70
70
70
70
70
FC
FC
ENDCHAR
STARTCHAR 00CD
ENCODING 205
SWIDTH 420 0
DWIDTH 7 0
BBX 6 16 1 0
BITMAP
38
38
30
40
FC
FC
70
70
70
70
70
70
70
70
FC
FC
ENDCHAR
STARTCHAR 00CE
ENCODING 206
SWIDTH 420 0
DWIDTH 7 0
BBX 7 16 0 0
BITMAP
38
3C
6E
80
7E
7E
38
38
38
38
38
38
38
38
7E
7E
ENDCHAR
STARTCHAR 00CF
ENCODING 207
SWIDTH 420 0
DWIDTH 7 0
BBX 7 16 0 0
BITMAP
EE
EE
EE
00
7E
7E
38
38
38
38
38
38
38
38
7E
7E
ENDCHAR
STARTCHAR 00D0
ENCODING 208
SWIDTH 780 0
DWIDTH 13 0
BBX 12 12 0 0
BITMAP
7FC0
7FE0
70F0
7070
7070
FC70
FC70
7070
7070
70F0
7FE0
7FC0
ENDCHAR
STARTCHAR 00D1
ENCODING 209
SWIDTH 720 0
DWIDTH 12 0
BBX 10 15 1 0
BITMAP
1900
3F00
1600
E1C0
F1C0
F9C0
F9C0
FDC0
FDC0
EFC0
E7C0
E7C0
E3C0
E3C0
E1C0
ENDCHAR
STARTCHAR 00D2
ENCODING 210
SWIDTH 720 0
DWIDTH 12 0
BBX 11 15 1 0
BITMAP
1C00
0C00
0C00
7FC0
FFC0
E1E0
E0E0
E0E0
E0E0
E0E0
E0E0
E0E0
E1E0
FFC0
7FC0
ENDCHAR
STARTCHAR 00D3
ENCODING 211
SWIDTH 720 0
DWIDTH 12 0
BBX 11 16 1 0
BITMAP
0700
0600
0E00
0000
7FC0
FFC0
E1E0
E0E0
E0E0
E0E0
E0E0
E0E0
E0E0
E1E0
FFC0
7FC0
ENDCHAR
STARTCHAR 00D4
ENCODING 212
SWIDTH 720 0
DWIDTH 12 0
BBX 11 16 1 0
BITMAP
0E00
1E00
3B00
0000
7FC0
FFC0
E1E0
E0E0
E0E0
E0E0
E0E0
E0E0
E0E0
E1E0
FFC0
7FC0
ENDCHAR
STARTCHAR 00D5
ENCODING 213
SWIDTH 720 0
DWIDTH 12 0
BBX 11 16 1 0
BITMAP
1900
3F00
1600
0000
7FC0
FFC0
E1E0
E0E0
E0E0
E0E0
E0E0
E0E0
E0E0
E1E0
FFC0
7FC0
ENDCHAR
STARTCHAR 00D6
ENCODING 214
SWIDTH 720 0
DWIDTH 12 0
BBX 11 16 1 0
BITMAP
3B80
3B80
3B80
0000
7FC0
FFC0
E1E0
E0E0
E0E0
E0E0
E0E0
E0E0
E0E0
E1E0
FFC0
7FC0
ENDCHAR
STARTCHAR 00D7
ENCODING 215
SWIDTH 540 0
DWIDTH 9 0
BBX 8 8 1 2
BITMAP
44
EF
FE
7C
7C
FE
EF
44
ENDCHAR
STARTCHAR 00D8
ENCODING 216
SWIDTH 720 0
DWIDTH 12 0
BBX 12 12 0 0
BITMAP
3FF0
7FE0
70F0
71F0
71F0
7370
7670
7C70
7870
70F0
7FE0
FFE0
ENDCHAR
STARTCHAR 00D9
ENCODING 217
SWIDTH 780 0
DWIDTH 13 0
BBX 11 15 1 0
BITMAP
1C00
0C00
0E00
E0E0
E0E0
E0E0
E0E0
E0E0
E0E0
E0E0
E0E0
E0E0
E1E0
FFC0
7FC0
ENDCHAR
STARTCHAR 00DA
ENCODING 218
SWIDTH 780 0
DWIDTH 13 0
BBX 11 15 1 0
BITMAP
0700
0600
0E00
E0E0
E0E0
E0E0
E0E0
E0E0
E0E0
E0E0
E0E0
E0E0
E1E0
FFC0
7FC0
ENDCHAR
STARTCHAR 00DB
ENCODING 219
SWIDTH 780 0
DWIDTH 13 0
BBX 11 16 1 0
BITMAP
0E00
1E00
3B00
0080
E0E0
E0E0
E0E0
E0E0
E0E0
E0E0
E0E0
E0E0
E0E0
E1E0
FFC0
7FC0
ENDCHAR
STARTCHAR 00DC
ENCODING 220
SWIDTH 780 0
DWIDTH 13 0
BBX 11 15 1 0
BITMAP
3B80
3B80
3B80
E0E0
E0E0
E0E0
E0E0
E0E0
E0E0
E0E0
E0E0
E0E0
E1E0
FFC0
7FC0
ENDCHAR
STARTCHAR 00DD
ENCODING 221
SWIDTH 660 0
DWIDTH 11 0
BBX 12 15 0 0
BITMAP
0700
0700
0E00
E0F0
F0E0
71C0
79C0
3B80
3F80
1F00
1F00
0E00
0E00
0E00
0E00
ENDCHAR
STARTCHAR 00DE
ENCODING 222
SWIDTH 720 0
DWIDTH 12 0
BBX 11 12 1 0
BITMAP
E000
FF80
FFC0
FFE0
E0E0
E0E0
E0E0
E0E0
FFE0
FFC0
FF80
E000
ENDCHAR
STARTCHAR 00DF
ENCODING 223
SWIDTH 660 0
DWIDTH 11 0
BBX 9 12 1 0
BITMAP
7E00
FF00
E700
E700
E700
EE00
EF80
E380
E380
E380
EF80
EF00
ENDCHAR
STARTCHAR 00E0
ENCODING 224
SWIDTH 600 0
DWIDTH 10 0
BBX 9 13 0 0
BITMAP
1C00
0C00
0C00
0000
7F80
7F80
0380
3F80
7F80
F380
E380
7F80
7D80
ENDCHAR
STARTCHAR 00E1
ENCODING 225
SWIDTH 600 0
DWIDTH 10 0
BBX 9 13 0 0
BITMAP
0700
0E00
0C00
0000
7F80
7F80
0380
3F80
7F80
F380
E380
7F80
7D80
ENDCHAR
STARTCHAR 00E2
ENCODING 226
SWIDTH 600 0
DWIDTH 10 0
BBX 9 13 0 0
BITMAP
0E00
1E00
3B00
0080
7F80
7F80
0380
3F80
7F80
F380
E380
7F80
7D80
ENDCHAR
STARTCHAR 00E3
ENCODING 227
SWIDTH 600 0
DWIDTH 10 0
BBX 9 13 0 0
BITMAP
1900
3F00
1700
0000
7F80
7F80
0380
3F80
7F80
F380
E380
7F80
7D80
ENDCHAR
STARTCHAR 00E4
ENCODING 228
SWIDTH 600 0
DWIDTH 10 0
BBX 9 13 0 0
BITMAP
3B80
3B80
3B80
0000
7F80
7F80
0380
3F80
7F80
F380
E380
7F80
7D80
ENDCHAR
STARTCHAR 00E5
ENCODING 229
SWIDTH 600 0
DWIDTH 10 0
BBX 9 13 0 0
BITMAP
1E00
1200
1E00
0000
7F80
7F80
0380
3F80
7F80
F380
E380
7F80
7D80
ENDCHAR
STARTCHAR 00E6
ENCODING 230
SWIDTH 960 0
DWIDTH 16 0
BBX 15 9 0 0
BITMAP
7FFC
7FFE
038E
3FFE
7FFE
F3FE
E380
7FFE
7DFE
ENDCHAR
STARTCHAR 00E7
ENCODING 231
SWIDTH 540 0
DWIDTH 9 0
BBX 8 12 1 -3
BITMAP
7F
FF
E0
E0
E0
E0
E0
FF
FF
18
04
3C
ENDCHAR
STARTCHAR 00E8
ENCODING 232
SWIDTH 600 0
DWIDTH 10 0
BBX 9 13 1 0
BITMAP
7800
3800
1800
0000
FF00
FF00
E380
E380
FF80
FF80
E000
FF00
FF00
ENDCHAR
STARTCHAR 00E9
ENCODING 233
SWIDTH 600 0
DWIDTH 10 0
BBX 9 13 1 0
BITMAP
0E00
1C00
1800
0000
FF00
FF00
E380
E380
FF80
FF80
E000
FF00
FF00
ENDCHAR
STARTCHAR 00EA
ENCODING 234
SWIDTH 600 0
DWIDTH 10 0
BBX 9 13 1 0
BITMAP
1800
3C00
7600
0000
FF00
FF00
E380
E380
FF80
FF80
E000
FF00
FF00
ENDCHAR
STARTCHAR 00EB
ENCODING 235
SWIDTH 600 0
DWIDTH 10 0
BBX 9 12 1 0
BITMAP
7700
7700
7700
FF00
FF00
E380
E380
FF80
FF80
E000
FF00
FF00
ENDCHAR
STARTCHAR 00EC
ENCODING 236
SWIDTH 300 0
DWIDTH 5 0
BBX 5 13 0 0
BITMAP
E0
70
30
00
F8
F8
38
38
38
38
38
38
38
ENDCHAR
STARTCHAR 00ED
ENCODING 237
SWIDTH 300 0
DWIDTH 5 0
BBX 6 13 0 0
BITMAP
1C
38
30
00
F8
F8
38
38
38
38
38
38
38
ENDCHAR
STARTCHAR 00EE
ENCODING 238
SWIDTH 300 0
DWIDTH 5 0
BBX 6 13 0 0
BITMAP
30
78
DC
00
F8
F8
38
38
38
38
38
38
38
ENDCHAR
STARTCHAR 00EF
ENCODING 239
SWIDTH 300 0
DWIDTH 5 0
BBX 7 12 -1 0
BITMAP
EE
EE
00
7C
7C
1C
1C
1C
1C
1C
1C
1C
ENDCHAR
STARTCHAR 00F0
ENCODING 240
SWIDTH 600 0
DWIDTH 10 0
BBX 9 13 1 0
BITMAP
3000
7C00
7F00
3F80
1380
0380
FF80
FF80
E380
E380
E380
FF80
FF00
ENDCHAR
STARTCHAR 00F1
ENCODING 241
SWIDTH 660 0
DWIDTH 11 0
BBX 9 13 1 0
BITMAP
3200
7E00
2C00
0000
FF00
FF80
E380
E380
E380
E380
E380
E380
E380
ENDCHAR
STARTCHAR 00F2
ENCODING 242
SWIDTH 660 0
DWIDTH 11 0
BBX 9 13 1 0
BITMAP
3800
1800
1800
0000
FF00
FF80
E380
E380
E380
E380
E380
FF80
FF00
ENDCHAR
STARTCHAR 00F3
ENCODING 243
SWIDTH 660 0
DWIDTH 11 0
BBX 9 13 1 0
BITMAP
0E00
0C00
1C00
0000
FF00
FF80
E380
E380
E380
E380
E380
FF80
FF00
ENDCHAR
STARTCHAR 00F4
ENCODING 244
SWIDTH 660 0
DWIDTH 11 0
BBX 9 13 1 0
BITMAP
1C00
3C00
7600
0100
FF00
FF80
E380
E380
E380
E380
E380
FF80
FF00
ENDCHAR
STARTCHAR 00F5
ENCODING 245
SWIDTH 660 0
DWIDTH 11 0
BBX 9 13 1 0
BITMAP
3200
7E00
2C00
0000
FF00
FF80
E380
E380
E380
E380
E380
FF80
FF00
ENDCHAR
STARTCHAR 00F6
ENCODING 246
SWIDTH 660 0
DWIDTH 11 0
BBX 9 13 1 0
BITMAP
7700
7700
7700
0000
FF00
FF80
E380
E380
E380
E380
E380
FF80
FF00
ENDCHAR
STARTCHAR 00F7
ENCODING 247
SWIDTH 540 0
DWIDTH 9 0
BBX 8 8 1 2
BITMAP
38
38
00
FF
FF
00
38
38
ENDCHAR
STARTCHAR 00F8
ENCODING 248
SWIDTH 660 0
DWIDTH 11 0
BBX 10 9 0 0
BITMAP
7FC0
7FC0
73C0
77C0
7FC0
79C0
71C0
7FC0
FF80
ENDCHAR
STARTCHAR 00F9
ENCODING 249
SWIDTH 660 0
DWIDTH 11 0
BBX 9 12 1 0
BITMAP
3800
1800
1C00
E380
E380
E380
E380
E380
E380
E380
FF80
7F80
ENDCHAR
STARTCHAR 00FA
ENCODING 250
SWIDTH 660 0
DWIDTH 11 0
BBX 9 13 1 0
BITMAP
0E00
0C00
1C00
0000
E380
E380
E380
E380
E380
E380
E380
FF80
7F80
ENDCHAR
STARTCHAR 00FB
ENCODING 251
SWIDTH 660 0
DWIDTH 11 0
BBX 9 13 1 0
BITMAP
1C00
3C00
7600
0100
E380
E380
E380
E380
E380
E380
E380
FF80
7F80
ENDCHAR
STARTCHAR 00FC
ENCODING 252
SWIDTH 660 0
DWIDTH 11 0
BBX 9 12 1 0
BITMAP
7700
7700
7700
E380
E380
E380
E380
E380
E380
E380
FF80
7F80
ENDCHAR
STARTCHAR 00FD
ENCODING 253
SWIDTH 600 0
DWIDTH 10 0
BBX 10 16 0 -3
BITMAP
0700
0E00
0C00
0000
E1C0
F380
7380
7380
3F00
3F00
1F00
1E00
1E00
1E00
7C00
7800
ENDCHAR
STARTCHAR 00FE
ENCODING 254
SWIDTH 660 0
DWIDTH 11 0
BBX 9 15 1 -3
BITMAP
E000
E000
E000
FF00
FF80
E380
E380
E380
E380
E380
FF80
FF00
E000
E000
E000
ENDCHAR
STARTCHAR 00FF
ENCODING 255
SWIDTH 600 0
DWIDTH 10 0
BBX 10 16 0 -3
BITMAP
7700
7700
7700
0000
E1C0
F380
7380
7380
3F00
3F00
1F00
1E00
1E00
1E00
7C00
7800
ENDCHAR
STARTCHAR 0100
ENCODING 256
SWIDTH 720 0
DWIDTH 12 0
BBX 12 15 0 0
BITMAP
1F80
1F80
0000
0F00
0F00
1F80
1F80
1F80
39C0
39C0
39E0
7FE0
7FE0
F0F0
E070
ENDCHAR
STARTCHAR 0101
ENCODING 257
SWIDTH 600 0
DWIDTH 10 0
BBX 9 12 0 0
BITMAP
1F00
1F00
0000
7F80
7F80
0380
3F80
7F80
F380
E380
7F80
7D80
ENDCHAR
STARTCHAR 0102
ENCODING 258
SWIDTH 720 0
DWIDTH 12 0
BBX 12 16 0 0
BITMAP
1980
1F80
0F00
0000
0F00
0F00
1F80
1F80
1F80
39C0
39C0
39E0
7FE0
7FE0
F0F0
E070
ENDCHAR
STARTCHAR 0103
ENCODING 259
SWIDTH 600 0
DWIDTH 10 0
BBX 9 13 0 0
BITMAP
3300
3F00
1F00
0000
7F80
7F80
0380
3F80
7F80
F380
E380
7F80
7D80
ENDCHAR
STARTCHAR 0104
ENCODING 260
SWIDTH 720 0
DWIDTH 12 0
BBX 12 15 0 -3
BITMAP
0F00
0F00
1F80
1F80
1F80
39C0
39C0
39E0
7FE0
7FE0
F0F0
E070
0060
0040
0070
ENDCHAR
STARTCHAR 0105
ENCODING 261
SWIDTH 600 0
DWIDTH 10 0
BBX 9 12 0 -3
BITMAP
7F80
7F80
0380
3F80
7F80
F380
E380
7F80
7D80
0100
0200
0380
ENDCHAR
STARTCHAR 0106
ENCODING 262
SWIDTH 660 0
DWIDTH 11 0
BBX 9 16 1 0
BITMAP
0E00
0E00
1C00
0000
7F80
FF80
F000
E000
E000
E000
E000
E000
E000
E000
FF80
7F80
ENDCHAR
STARTCHAR 0107
ENCODING 263
SWIDTH 540 0
DWIDTH 9 0
BBX 8 13 1 0
BITMAP
0E
1C
18
00
7F
FF
E0
E0
E0
E0
E0
FF
FF
ENDCHAR
STARTCHAR 010C
ENCODING 268
SWIDTH 660 0
DWIDTH 11 0
BBX 9 16 1 0
BITMAP
3300
3E00
1C00
0000
7F80
FF80
F000
E000
E000
E000
E000
E000
E000
E000
FF80
7F80
ENDCHAR
STARTCHAR 010D
ENCODING 269
SWIDTH 540 0
DWIDTH 9 0
BBX 8 13 1 0
BITMAP
66
3C
3C
00
7F
FF
E0
E0
E0
E0
E0
FF
FF
ENDCHAR
STARTCHAR 010E
ENCODING 270
SWIDTH 720 0
DWIDTH 12 0
BBX 11 16 1 0
BITMAP
3300
3E00
1C00
0000
FF80
FFC0
E3C0
E1E0
E1E0
E1E0
E1E0
E1E0
E1E0
E1C0
FFC0
FF80
ENDCHAR
STARTCHAR 010F
ENCODING 271
SWIDTH 840 0
DWIDTH 14 0
BBX 13 12 1 0
BITMAP
03B8
03B8
0390
7FB0
FF80
E380
E380
E380
E380
E780
FF80
FB80
ENDCHAR
STARTCHAR 0110
ENCODING 272
SWIDTH 780 0
DWIDTH 13 0
BBX 12 12 0 0
BITMAP
7FC0
7FE0
70F0
7070
7070
FC70
FC70
7070
7070
70F0
7FE0
7FC0
ENDCHAR
STARTCHAR 0111
ENCODING 273
SWIDTH 660 0
DWIDTH 11 0
BBX 10 12 1 0
BITMAP
0380
0FC0
0FC0
0FC0
7F80
FF80
FF80
E380
E380
E780
FF80
FB80
ENDCHAR
STARTCHAR 0112
ENCODING 274
SWIDTH 660 0
DWIDTH 11 0
BBX 9 15 1 0
BITMAP
3E00
3E00
0000
FF80
FF80
E000
E000
E000
FF00
FF00
E000
E000
E000
FF80
FF80
ENDCHAR
STARTCHAR 0113
ENCODING 275
SWIDTH 600 0
DWIDTH 10 0
BBX 9 12 1 0
BITMAP
3E00
3E00
0000
FF00
FF00
E380
E380
FF80
FF80
E000
FF00
FF00
ENDCHAR
STARTCHAR 0116
ENCODING 278
SWIDTH 660 0
DWIDTH 11 0
BBX 9 16 1 0
BITMAP
1C00
1C00
1C00
0000
FF80
FF80
E000
E000
E000
FF00
FF00
E000
E000
E000
FF80
FF80
ENDCHAR
STARTCHAR 0117
ENCODING 279
SWIDTH 600 0
DWIDTH 10 0
BBX 9 13 1 0
BITMAP
1C00
1C00
1C00
0000
FF00
FF00
E380
E380
FF80
FF80
E000
FF00
FF00
ENDCHAR
STARTCHAR 0118
ENCODING 280
SWIDTH 660 0
DWIDTH 11 0
BBX 9 15 1 -3
BITMAP
FF80
FF80
E000
E000
E000
FF00
FF00
E000
E000
E000
FF80
FF80
0100
0200
0380
ENDCHAR
STARTCHAR 0119
ENCODING 281
SWIDTH 600 0
DWIDTH 10 0
BBX 9 12 1 -3
BITMAP
FF00
FF00
E380
E380
FF80
FF80
E000
FF00
FF00
0600
0400
0700
ENDCHAR
STARTCHAR 011A
ENCODING 282
SWIDTH 660 0
DWIDTH 11 0
BBX 9 16 1 0
BITMAP
3300
1E00
1E00
0000
FF80
FF80
E000
E000
E000
FF00
FF00
E000
E000
E000
FF80
FF80
ENDCHAR
STARTCHAR 011B
ENCODING 283
SWIDTH 600 0
DWIDTH 10 0
BBX 9 13 1 0
BITMAP
6600
3C00
3C00
0000
FF00
FF00
E380
E380
FF80
FF80
E000
FF00
FF00
ENDCHAR
STARTCHAR 011E
ENCODING 286
SWIDTH 720 0
DWIDTH 12 0
BBX 10 15 1 0
BITMAP
3300
3F00
1E00
7F80
FF80
F000
E000
E000
E7C0
E7C0
E1C0
E1C0
E1C0
FFC0
7FC0
ENDCHAR
STARTCHAR 011F
ENCODING 287
SWIDTH 660 0
DWIDTH 11 0
BBX 9 15 1 -3
BITMAP
7700
3E00
0000
7F80
FF80
E380
E380
E380
E380
FF80
FF80
7B80
0380
FF80
FF00
ENDCHAR
STARTCHAR 0122
ENCODING 290
SWIDTH 720 0
DWIDTH 12 0
BBX 10 17 1 -5
BITMAP
7F80
FF80
F000
E000
E000
E7C0
E7C0
E1C0
E1C0
E1C0
FFC0
7FC0
0000
1C00
1C00
0C00
0800
ENDCHAR
STARTCHAR 0123
ENCODING 291
SWIDTH 660 0
DWIDTH 11 0
BBX 9 17 1 -3
BITMAP
0800
1800
1C00
1C00
0000
7F80
FF80
E380
E380
E380
E380
FF80
FF80
7B80
0380
FF80
FF00
ENDCHAR
STARTCHAR 0127
ENCODING 295
SWIDTH 660 0
DWIDTH 11 0
BBX 11 12 0 0
BITMAP
3000
FC00
FC00
FC00
7780
7FC0
7FE0
70E0
70E0
70E0
70E0
70E0
ENDCHAR
STARTCHAR 0128
ENCODING 296
SWIDTH 420 0
DWIDTH 7 0
BBX 6 16 1 0
BITMAP
68
FC
B8
00
FC
FC
70
70
70
70
70
70
70
70
FC
FC
ENDCHAR
STARTCHAR 0129
ENCODING 297
SWIDTH 300 0
DWIDTH 5 0
BBX 6 13 0 0
BITMAP
48
FC
B8
00
F8
F8
38
38
38
38
38
38
38
ENDCHAR
STARTCHAR 012A
ENCODING 298
SWIDTH 420 0
DWIDTH 7 0
BBX 6 15 1 0
BITMAP
F8
F8
00
FC
FC
70
70
70
70
70
70
70
70
FC
FC
ENDCHAR
STARTCHAR 012B
ENCODING 299
SWIDTH 300 0
DWIDTH 5 0
BBX 5 12 0 0
BITMAP
F8
F8
00
F8
F8
F8
38
38
38
38
38
38
ENDCHAR
STARTCHAR 012E
ENCODING 302
SWIDTH 420 0
DWIDTH 7 0
BBX 6 15 1 -3
BITMAP
FC
FC
70
70
70
70
70
70
70
70
FC
FC
60
C0
70
ENDCHAR
STARTCHAR 012F
ENCODING 303
SWIDTH 300 0
DWIDTH 5 0
BBX 5 15 0 -3
BITMAP
38
38
00
F8
F8
F8
38
38
38
38
38
38
30
60
70
ENDCHAR
STARTCHAR 0130
ENCODING 304
SWIDTH 420 0
DWIDTH 7 0
BBX 6 16 1 0
BITMAP
70
70
70
00
FC
FC
70
70
70
70
70
70
70
70
FC
FC
ENDCHAR
STARTCHAR 0131
ENCODING 305
SWIDTH 300 0
DWIDTH 5 0
BBX 5 9 0 0
BITMAP
F8
F8
38
38
38
38
38
38
38
ENDCHAR
STARTCHAR 0133
ENCODING 307
SWIDTH 600 0
DWIDTH 10 0
BBX 9 15 0 -3
BITMAP
3B80
3B80
0000
FF80
FF80
3B80
3B80
3B80
3B80
3B80
3B80
3B80
0380
0F80
0F80
ENDCHAR
STARTCHAR 0134
ENCODING 308
SWIDTH 480 0
DWIDTH 8 0
BBX 7 16 0 0
BITMAP
1C
3C
76
00
3E
3E
0E
0E
0E
0E
0E
0E
0E
0E
FE
FC
ENDCHAR
STARTCHAR 0135
ENCODING 309
SWIDTH 300 0
DWIDTH 5 0
BBX 8 16 -2 -3
BITMAP
1C
1E
37
40
1C
1C
1C
1C
1C
1C
1C
1C
1C
1C
FC
F8
ENDCHAR
STARTCHAR 0136
ENCODING 310
SWIDTH 660 0
DWIDTH 11 0
BBX 10 17 1 -5
BITMAP
E1C0
E3C0
E380
E780
E700
FE00
FE00
E700
E780
E380
E3C0
E1C0
0000
1C00
1C00
0C00
0800
ENDCHAR
STARTCHAR 0137
ENCODING 311
SWIDTH 600 0
DWIDTH 10 0
BBX 9 17 1 -5
BITMAP
E000
E000
E000
E380
E700
E700
FE00
FE00
EE00
E700
E700
E380
0000
1C00
1C00
1800
1000
ENDCHAR
STARTCHAR 0138
ENCODING 312
SWIDTH 600 0
DWIDTH 10 0
BBX 9 9 1 0
BITMAP
E380
E780
E700
FE00
FE00
FE00
E700
E700
E380
ENDCHAR
STARTCHAR 0139
ENCODING 313
SWIDTH 600 0
DWIDTH 10 0
BBX 9 16 1 0
BITMAP
7800
7000
6000
8000
E000
E000
E000
E000
E000
E000
E000
E000
E000
E000
FF80
FF80
ENDCHAR
STARTCHAR 013A
ENCODING 314
SWIDTH 360 0
DWIDTH 6 0
BBX 4 16 1 0
BITMAP
70
60
E0
00
E0
E0
E0
E0
E0
E0
E0
E0
E0
E0
F0
70
ENDCHAR
STARTCHAR 013B
ENCODING 315
SWIDTH 600 0
DWIDTH 10 0
BBX 9 17 1 -5
BITMAP
E000
E000
E000
E000
E000
E000
E000
E000
E000
E000
FF80
FF80
0000
1C00
1C00
0800
1800
ENDCHAR
STARTCHAR 013C
ENCODING 316
SWIDTH 360 0
DWIDTH 6 0
BBX 4 17 1 -5
BITMAP
E0
E0
E0
E0
E0
E0
E0
E0
E0
E0
F0
70
00
E0
E0
60
40
ENDCHAR
STARTCHAR 013D
ENCODING 317
SWIDTH 600 0
DWIDTH 10 0
BBX 9 12 1 0
BITMAP
EE00
EE00
E600
E400
E800
E000
E000
E000
E000
E000
FF80
FF80
ENDCHAR
STARTCHAR 013E
ENCODING 318
SWIDTH 480 0
DWIDTH 8 0
BBX 7 12 1 0
BITMAP
EE
EE
E4
EC
E0
E0
E0
E0
E0
E0
F0
70
ENDCHAR
STARTCHAR 0140
ENCODING 320
SWIDTH 480 0
DWIDTH 8 0
BBX 7 12 1 0
BITMAP
E0
E0
E0
E0
E0
EE
EE
E0
E0
E0
F0
70
ENDCHAR
STARTCHAR 0141
ENCODING 321
SWIDTH 660 0
DWIDTH 11 0
BBX 11 12 0 0
BITMAP
7000
7000
7000
7400
7C00
7C00
F000
F000
F000
7000
7FE0
7FE0
ENDCHAR
STARTCHAR 0142
ENCODING 322
SWIDTH 360 0
DWIDTH 6 0
BBX 6 12 0 0
BITMAP
70
70
70
74
7C
7C
F0
F0
F0
70
7C
3C
ENDCHAR
STARTCHAR 0143
ENCODING 323
SWIDTH 720 0
DWIDTH 12 0
BBX 10 15 1 0
BITMAP
0700
0600
0E00
E1C0
F1C0
F9C0
F9C0
FDC0
FDC0
EFC0
E7C0
E7C0
E3C0
E3C0
E1C0
ENDCHAR
STARTCHAR 0144
ENCODING 324
SWIDTH 660 0
DWIDTH 11 0
BBX 9 13 1 0
BITMAP
0E00
0E00
1C00
0000
FF00
FF80
E380
E380
E380
E380
E380
E380
E380
ENDCHAR
STARTCHAR 0145
ENCODING 325
SWIDTH 720 0
DWIDTH 12 0
BBX 10 17 1 -5
BITMAP
E1C0
F1C0
F9C0
F9C0
FDC0
FDC0
EFC0
E7C0
E7C0
E3C0
E3C0
E1C0
0000
0E00
0E00
0400
0C00
ENDCHAR
STARTCHAR 0146
ENCODING 326
SWIDTH 660 0
DWIDTH 11 0
BBX 9 14 1 -5
BITMAP
FF00
FF80
E380
E380
E380
E380
E380
E380
E380
0000
1C00
1C00
0800
1800
ENDCHAR
STARTCHAR 0147
ENCODING 327
SWIDTH 720 0
DWIDTH 12 0
BBX 10 15 1 0
BITMAP
3300
1F00
0E00
E1C0
F1C0
F9C0
F9C0
FDC0
FDC0
EFC0
E7C0
E7C0
E3C0
E3C0
E1C0
ENDCHAR
STARTCHAR 0148
ENCODING 328
SWIDTH 660 0
DWIDTH 11 0
BBX 9 13 1 0
BITMAP
7700
3600
1C00
0000
FF00
FF80
E380
E380
E380
E380
E380
E380
E380
ENDCHAR
STARTCHAR 014C
ENCODING 332
SWIDTH 720 0
DWIDTH 12 0
BBX 11 15 1 0
BITMAP
1F00
1F00
0000
7FC0
FFC0
E1E0
E0E0
E0E0
E0E0
E0E0
E0E0
E0E0
E1E0
FFC0
7FC0
ENDCHAR
STARTCHAR 014D
ENCODING 333
SWIDTH 660 0
DWIDTH 11 0
BBX 9 12 1 0
BITMAP
3E00
3E00
0000
FF00
FF80
E380
E380
E380
E380
E380
FF80
FF00
ENDCHAR
STARTCHAR 0150
ENCODING 336
SWIDTH 720 0
DWIDTH 12 0
BBX 11 16 1 0
BITMAP
0D80
1B00
1B00
0000
7FC0
FFC0
E1E0
E0E0
E0E0
E0E0
E0E0
E0E0
E0E0
E1E0
FFC0
7FC0
ENDCHAR
STARTCHAR 0151
ENCODING 337
SWIDTH 660 0
DWIDTH 11 0
BBX 9 13 1 0
BITMAP
1B00
3600
3600
0000
FF00
FF80
E380
E380
E380
E380
E380
FF80
FF00
ENDCHAR
STARTCHAR 0152
ENCODING 338
SWIDTH 1020 0
DWIDTH 17 0
BBX 16 12 1 0
BITMAP
7FFF
FFFF
F1C0
E1C0
E1C0
E1FC
E1FC
E1C0
E1C0
E1C0
FFFF
7FFF
ENDCHAR
STARTCHAR 0153
ENCODING 339
SWIDTH 960 0
DWIDTH 16 0
BBX 14 9 1 0
BITMAP
FFFC
FFFC
E39C
E39C
E3FC
E3FC
E380
FFFC
FFFC
ENDCHAR
STARTCHAR 0154
ENCODING 340
SWIDTH 720 0
DWIDTH 12 0
BBX 11 16 1 0
BITMAP
0700
0E00
0C00
0000
FF80
FFC0
E1C0
E1E0
E1E0
E1E0
FFC0
FFC0
E780
E380
E1C0
E1E0
ENDCHAR
STARTCHAR 0155
ENCODING 341
SWIDTH 480 0
DWIDTH 8 0
BBX 6 13 1 0
BITMAP
1C
38
30
00
FC
FC
F0
E0
E0
E0
E0
E0
E0
ENDCHAR
STARTCHAR 0156
ENCODING 342
SWIDTH 720 0
DWIDTH 12 0
BBX 11 17 1 -5
BITMAP
FF80
FFC0
E1C0
E1E0
E1E0
E1E0
FFC0
FFC0
E780
E380
E1C0
E1E0
0000
0E00
0E00
0C00
0800
ENDCHAR
STARTCHAR 0157
ENCODING 343
SWIDTH 480 0
DWIDTH 8 0
BBX 6 14 1 -5
BITMAP
FC
FC
F0
E0
E0
E0
E0
E0
E0
00
E0
E0
40
C0
ENDCHAR
STARTCHAR 0158
ENCODING 344
SWIDTH 720 0
DWIDTH 12 0
BBX 11 16 1 0
BITMAP
3300
1E00
1E00
0000
FF80
FFC0
E1C0
E1E0
E1E0
E1E0
FFC0
FFC0
E780
E380
E1C0
E1E0
ENDCHAR
STARTCHAR 0159
ENCODING 345
SWIDTH 480 0
DWIDTH 8 0
BBX 6 13 1 0
BITMAP
CC
78
78
00
FC
FC
F0
E0
E0
E0
E0
E0
E0
ENDCHAR
STARTCHAR 015A
ENCODING 346
SWIDTH 660 0
DWIDTH 11 0
BBX 10 16 1 0
BITMAP
0E00
0E00
1C00
0000
7F80
FF80
E000
E000
E000
FF80
FFC0
01C0
01C0
01C0
FFC0
FF80
ENDCHAR
STARTCHAR 015B
ENCODING 347
SWIDTH 600 0
DWIDTH 10 0
BBX 10 13 0 0
BITMAP
0700
0E00
0C00
0000
7F80
7F80
E000
FF00
7F80
3F80
01C0
7F80
7F80
ENDCHAR
STARTCHAR 015E
ENCODING 350
SWIDTH 660 0
DWIDTH 11 0
BBX 10 15 1 -3
BITMAP
7F80
FF80
E000
E000
E000
FF80
FFC0
01C0
01C0
01C0
FFC0
FF80
1C00
0600
1E00
ENDCHAR
STARTCHAR 015F
ENCODING 351
SWIDTH 600 0
DWIDTH 10 0
BBX 10 13 0 -4
BITMAP
7F80
7F80
E000
FF00
7F80
3F80
01C0
7F80
7F80
0800
0E00
1E00
1C00
ENDCHAR
STARTCHAR 0160
ENCODING 352
SWIDTH 660 0
DWIDTH 11 0
BBX 10 16 1 0
BITMAP
7300
3E00
1C00
0000
7F80
FF80
E000
E000
E000
FF80
FFC0
01C0
01C0
01C0
FFC0
FF80
ENDCHAR
STARTCHAR 0161
ENCODING 353
SWIDTH 600 0
DWIDTH 10 0
BBX 10 13 0 0
BITMAP
3300
3E00
1E00
0000
7F80
7F80
E000
FF00
7F80
3F80
01C0
7F80
7F80
ENDCHAR
STARTCHAR 0162
ENCODING 354
SWIDTH 660 0
DWIDTH 11 0
BBX 10 17 0 -5
BITMAP
FFC0
FFC0
0E00
0E00
0E00
0E00
0E00
0E00
0E00
0E00
0E00
0E00
0000
0E00
0E00
0400
0C00
ENDCHAR
STARTCHAR 0163
ENCODING 355
SWIDTH 420 0
DWIDTH 7 0
BBX 7 16 0 -5
BITMAP
30
70
FC
FC
70
70
70
70
70
7E
3E
00
1C
1C
08
18
ENDCHAR
STARTCHAR 0164
ENCODING 356
SWIDTH 660 0
DWIDTH 11 0
BBX 10 16 0 0
BITMAP
3380
1F00
0E00
0000
FFC0
FFC0
0E00
0E00
0E00
0E00
0E00
0E00
0E00
0E00
0E00
0E00
ENDCHAR
STARTCHAR 0165
ENCODING 357
SWIDTH 600 0
DWIDTH 10 0
BBX 10 12 0 0
BITMAP
01C0
31C0
70C0
FD80
FC00
7000
7000
7000
7000
7000
7E00
3E00
ENDCHAR
STARTCHAR 016A
ENCODING 362
SWIDTH 780 0
DWIDTH 13 0
BBX 11 14 1 0
BITMAP
1F00
1F00
E0E0
E0E0
E0E0
E0E0
E0E0
E0E0
E0E0
E0E0
E0E0
E1E0
FFC0
7FC0
ENDCHAR
STARTCHAR 016B
ENCODING 363
SWIDTH 660 0
DWIDTH 11 0
BBX 9 12 1 0
BITMAP
3E00
3E00
0000
E380
E380
E380
E380
E380
E380
E380
FF80
7F80
ENDCHAR
STARTCHAR 016E
ENCODING 366
SWIDTH 780 0
DWIDTH 13 0
BBX 11 15 1 0
BITMAP
1E00
1B00
1E00
E0E0
E0E0
E0E0
E0E0
E0E0
E0E0
E0E0
E0E0
E0E0
E1E0
FFC0
7FC0
ENDCHAR
STARTCHAR 016F
ENCODING 367
SWIDTH 660 0
DWIDTH 11 0
BBX 9 13 1 0
BITMAP
3C00
3600
3C00
0000
E380
E380
E380
E380
E380
E380
E380
FF80
7F80
ENDCHAR
STARTCHAR 0170
ENCODING 368
SWIDTH 780 0
DWIDTH 13 0
BBX 11 15 1 0
BITMAP
0D80
0D80
1B00
E0E0
E0E0
E0E0
E0E0
E0E0
E0E0
E0E0
E0E0
E0E0
E1E0
FFC0
7FC0
ENDCHAR
STARTCHAR 0171
ENCODING 369
SWIDTH 660 0
DWIDTH 11 0
BBX 9 13 1 0
BITMAP
1B00
1B00
3600
0000
E380
E380
E380
E380
E380
E380
E380
FF80
7F80
ENDCHAR
STARTCHAR 0172
ENCODING 370
SWIDTH 780 0
DWIDTH 13 0
BBX 11 15 1 -3
BITMAP
E0E0
E0E0
E0E0
E0E0
E0E0
E0E0
E0E0
E0E0
E0E0
E1E0
FFC0
7FC0
0400
0800
0E00
ENDCHAR
STARTCHAR 0173
ENCODING 371
SWIDTH 660 0
DWIDTH 11 0
BBX 9 12 1 -3
BITMAP
E380
E380
E380
E380
E380
E380
E380
FF80
7F80
0300
0600
0780
ENDCHAR
STARTCHAR 0178
ENCODING 376
SWIDTH 660 0
DWIDTH 11 0
BBX 12 15 0 0
BITMAP
3B80
3B80
3B80
E0F0
F0E0
71C0
79C0
3B80
3F80
1F00
1F00
0E00
0E00
0E00
0E00
ENDCHAR
STARTCHAR 0179
ENCODING 377
SWIDTH 600 0
DWIDTH 10 0
BBX 10 16 0 0
BITMAP
0700
0E00
0C00
0000
FFC0
FFC0
03C0
0780
0700
0F00
1E00
3C00
7800
F000
FFC0
FFC0
ENDCHAR
STARTCHAR 017A
ENCODING 378
SWIDTH 540 0
DWIDTH 9 0
BBX 9 13 0 0
BITMAP
0E00
0C00
1C00
0000
FF80
FF80
0780
0E00
1C00
3800
7000
FF80
FF80
ENDCHAR
STARTCHAR 017B
ENCODING 379
SWIDTH 600 0
DWIDTH 10 0
BBX 10 16 0 0
BITMAP
0E00
0E00
0E00
0000
FFC0
FFC0
03C0
0780
0700
0F00
1E00
3C00
7800
F000
FFC0
FFC0
ENDCHAR
STARTCHAR 017C
ENCODING 380
SWIDTH 540 0
DWIDTH 9 0
BBX 9 13 0 0
BITMAP
1C00
1C00
1C00
0000
FF80
FF80
0780
0E00
1C00
3800
7000
FF80
FF80
ENDCHAR
STARTCHAR 017D
ENCODING 381
SWIDTH 600 0
DWIDTH 10 0
BBX 10 16 0 0
BITMAP
3300
1F00
0E00
0000
FFC0
FFC0
03C0
0780
0700
0F00
1E00
3C00
7800
F000
FFC0
FFC0
ENDCHAR
STARTCHAR 017E
ENCODING 382
SWIDTH 540 0
DWIDTH 9 0
BBX 9 13 0 0
BITMAP
7300
3600
1C00
0000
FF80
FF80
0780
0E00
1C00
3800
7000
FF80
FF80
ENDCHAR
STARTCHAR 0192
ENCODING 402
SWIDTH 480 0
DWIDTH 8 0
BBX 11 15 -2 -3
BITMAP
07E0
07E0
0E00
0E00
1FC0
3F80
1C00
1C00
1C00
1C00
1C00
1C00
3C00
F800
F000
ENDCHAR
STARTCHAR 0218
ENCODING 536
SWIDTH 660 0
DWIDTH 11 0
BBX 10 17 1 -5
BITMAP
7F80
FF80
E000
E000
E000
FF80
FFC0
01C0
01C0
01C0
FFC0
FF80
0000
1C00
1C00
0C00
0800
ENDCHAR
STARTCHAR 0219
ENCODING 537
SWIDTH 600 0
DWIDTH 10 0
BBX 10 14 0 -5
BITMAP
7F80
7F80
E000
FF00
7F80
3F80
01C0
7F80
7F80
0000
1C00
1C00
0C00
0800
ENDCHAR
STARTCHAR 02C6
ENCODING 710
SWIDTH 360 0
DWIDTH 6 0
BBX 6 3 0 11
BITMAP
38
78
EC
ENDCHAR
STARTCHAR 02C7
ENCODING 711
SWIDTH 360 0
DWIDTH 6 0
BBX 6 3 0 11
BITMAP
CC
7C
38
ENDCHAR
STARTCHAR 02D8
ENCODING 728
SWIDTH 360 0
DWIDTH 6 0
BBX 6 3 0 11
BITMAP
CC
FC
78
ENDCHAR
STARTCHAR 02D9
ENCODING 729
SWIDTH 180 0
DWIDTH 3 0
BBX 3 3 0 11
BITMAP
E0
E0
E0
ENDCHAR
STARTCHAR 02DA
ENCODING 730
SWIDTH 0 0
DWIDTH 0 0
BBX 4 3 -4 11
BITMAP
F0
90
F0
ENDCHAR
STARTCHAR 02DB
ENCODING 731
SWIDTH 180 0
DWIDTH 3 0
BBX 4 3 0 -3
BITMAP
70
C0
E0
ENDCHAR
STARTCHAR 02DC
ENCODING 732
SWIDTH 360 0
DWIDTH 6 0
BBX 6 3 0 11
BITMAP
68
FC
98
ENDCHAR
STARTCHAR 02DD
ENCODING 733
SWIDTH 360 0
DWIDTH 6 0
BBX 6 3 0 11
BITMAP
6C
6C
D8
ENDCHAR
STARTCHAR 03BC
ENCODING 956
SWIDTH 660 0
DWIDTH 11 0
BBX 9 12 1 -3
BITMAP
E380
E380
E380
E380
E380
E380
E780
FF80
FB80
E000
E000
E000
ENDCHAR
STARTCHAR 0401
ENCODING 1025
SWIDTH 660 0
DWIDTH 11 0
BBX 9 15 1 0
BITMAP
7700
7700
0000
FF80
FF80
E000
E000
E000
FF00
FF00
E000
E000
E000
FF80
FF80
ENDCHAR
STARTCHAR 0402
ENCODING 1026
SWIDTH 780 0
DWIDTH 13 0
BBX 13 12 0 0
BITMAP
FF80
FF80
1C00
1C00
1FE0
1FF8
1FF8
1C38
1C38
1C38
1CF8
1CF0
ENDCHAR
STARTCHAR 0403
ENCODING 1027
SWIDTH 600 0
DWIDTH 10 0
BBX 9 15 1 0
BITMAP
0F00
0C00
1C00
FF80
FF80
E000
E000
E000
E000
E000
E000
E000
E000
E000
E000
ENDCHAR
STARTCHAR 0404
ENCODING 1028
SWIDTH 660 0
DWIDTH 11 0
BBX 9 12 1 0
BITMAP
7F80
FF80
F000
E000
E000
FE00
FE00
E000
E000
E000
FF80
7F80
ENDCHAR
STARTCHAR 0405
ENCODING 1029
SWIDTH 660 0
DWIDTH 11 0
BBX 10 12 1 0
BITMAP
7F80
FF80
E000
E000
E000
FF80
FFC0
01C0
01C0
01C0
FFC0
FF80
ENDCHAR
STARTCHAR 0406
ENCODING 1030
SWIDTH 420 0
DWIDTH 7 0
BBX 6 12 1 0
BITMAP
FC
FC
70
70
70
70
70
70
70
70
FC
FC
ENDCHAR
STARTCHAR 0407
ENCODING 1031
SWIDTH 420 0
DWIDTH 7 0
BBX 7 15 0 0
BITMAP
EE
EE
00
7E
7E
38
38
38
38
38
38
38
38
7E
7E
ENDCHAR
STARTCHAR 0408
ENCODING 1032
SWIDTH 480 0
DWIDTH 8 0
BBX 7 12 0 0
BITMAP
3E
3E
0E
0E
0E
0E
0E
0E
0E
0E
FE
FC
ENDCHAR
STARTCHAR 0409
ENCODING 1033
SWIDTH 1140 0
DWIDTH 19 0
BBX 18 12 0 0
BITMAP
3FE000
3FE000
38E000
38E000
38FF80
38FFC0
38FFC0
38E1C0
38E1C0
78E1C0
F0FFC0
F0FF80
ENDCHAR
STARTCHAR 040A
ENCODING 1034
SWIDTH 1080 0
DWIDTH 18 0
BBX 17 12 1 0
BITMAP
E1C000
E1C000
E1C000
E1C000
E1C000
FFFF00
FFFF80
E1C380
E1C380
E1C780
E1FF80
E1FF00
ENDCHAR
STARTCHAR 040B
ENCODING 1035
SWIDTH 780 0
DWIDTH 13 0
BBX 13 12 0 0
BITMAP
FF80
FF80
3800
3800
3FE0
3FF0
3FF8
3838
3838
3838
3838
3838
ENDCHAR
STARTCHAR 040C
ENCODING 1036
SWIDTH 660 0
DWIDTH 11 0
BBX 10 15 1 0
BITMAP
0700
0E00
0C00
E1C0
E3C0
E380
E700
E700
FE00
FE00
E700
E780
E380
E3C0
E1C0
ENDCHAR
STARTCHAR 040E
ENCODING 1038
SWIDTH 720 0
DWIDTH 12 0
BBX 12 15 0 0
BITMAP
1980
1F80
0F00
E070
F0E0
70E0
39C0
39C0
1FC0
1F80
0F80
0F00
0F00
3E00
3C00
ENDCHAR
STARTCHAR 040F
ENCODING 1039
SWIDTH 720 0
DWIDTH 12 0
BBX 10 14 1 -2
BITMAP
E1C0
E1C0
E1C0
E1C0
E1C0
E1C0
E1C0
E1C0
E1C0
E1C0
FFC0
FFC0
0E00
0E00
ENDCHAR
STARTCHAR 0410
ENCODING 1040
SWIDTH 720 0
DWIDTH 12 0
BBX 12 12 0 0
BITMAP
0F00
0F00
1F80
1F80
1F80
39C0
39C0
39E0
7FE0
7FE0
F0F0
E070
ENDCHAR
STARTCHAR 0411
ENCODING 1041
SWIDTH 720 0
DWIDTH 12 0
BBX 11 12 1 0
BITMAP
FF80
FF80
E000
E000
E000
FFC0
FFC0
E1E0
E1E0
E1E0
FFC0
FF80
ENDCHAR
STARTCHAR 0412
ENCODING 1042
SWIDTH 720 0
DWIDTH 12 0
BBX 11 12 1 0
BITMAP
FF80
FFC0
E3C0
E1C0
E1C0
FF80
FFC0
E1C0
E1E0
E1E0
FFC0
FF80
ENDCHAR
STARTCHAR 0413
ENCODING 1043
SWIDTH 600 0
DWIDTH 10 0
BBX 9 12 1 0
BITMAP
FF80
FF80
E000
E000
E000
E000
E000
E000
E000
E000
E000
E000
ENDCHAR
STARTCHAR 0414
ENCODING 1044
SWIDTH 780 0
DWIDTH 13 0
BBX 13 14 0 -2
BITMAP
1FF0
1FF0
1870
1870
3870
3870
3870
3870
3870
7070
FFF8
FFF8
E038
E038
ENDCHAR
STARTCHAR 0415
ENCODING 1045
SWIDTH 660 0
DWIDTH 11 0
BBX 9 12 1 0
BITMAP
FF80
FF80
E000
E000
E000
FF00
FF00
E000
E000
E000
FF80
FF80
ENDCHAR
STARTCHAR 0416
ENCODING 1046
SWIDTH 1020 0
DWIDTH 17 0
BBX 17 12 0 0
BITMAP
E1C380
F1C780
79C700
39CE00
1DDE00
1FFC00
1FFC00
3DDE00
39CE00
79C700
71C700
F1C380
ENDCHAR
STARTCHAR 0417
ENCODING 1047
SWIDTH 660 0
DWIDTH 11 0
BBX 10 12 0 0
BITMAP
7F80
7FC0
03C0
01C0
01C0
3F80
3FC0
01C0
01C0
01C0
FFC0
FF80
ENDCHAR
STARTCHAR 0418
ENCODING 1048
SWIDTH 720 0
DWIDTH 12 0
BBX 10 12 1 0
BITMAP
E1C0
E3C0
E3C0
E7C0
E7C0
EFC0
EDC0
FDC0
F9C0
F9C0
F1C0
F1C0
ENDCHAR
STARTCHAR 0419
ENCODING 1049
SWIDTH 720 0
DWIDTH 12 0
BBX 10 15 1 0
BITMAP
3B00
3F00
0000
E1C0
E3C0
E3C0
E7C0
E7C0
EFC0
EDC0
FDC0
F9C0
F9C0
F1C0
F1C0
ENDCHAR
STARTCHAR 041A
ENCODING 1050
SWIDTH 660 0
DWIDTH 11 0
BBX 10 12 1 0
BITMAP
E1C0
E3C0
E380
E700
E700
FE00
FE00
E700
E780
E380
E3C0
E1C0
ENDCHAR
STARTCHAR 041B
ENCODING 1051
SWIDTH 780 0
DWIDTH 13 0
BBX 12 12 0 0
BITMAP
3FF0
3FF0
3870
3870
3870
3870
3870
3870
3870
7870
F070
F070
ENDCHAR
STARTCHAR 041C
ENCODING 1052
SWIDTH 900 0
DWIDTH 15 0
BBX 13 12 1 0
BITMAP
E038
F078
F878
F8F8
FCF8
FDF8
EFF8
EFB8
E738
E738
E038
E038
ENDCHAR
STARTCHAR 041D
ENCODING 1053
SWIDTH 720 0
DWIDTH 12 0
BBX 10 12 1 0
BITMAP
E1C0
E1C0
E1C0
E1C0
E1C0
FFC0
FFC0
E1C0
E1C0
E1C0
E1C0
E1C0
ENDCHAR
STARTCHAR 041E
ENCODING 1054
SWIDTH 720 0
DWIDTH 12 0
BBX 11 12 1 0
BITMAP
7FC0
FFC0
E1E0
E0E0
E0E0
E0E0
E0E0
E0E0
E0E0
E1E0
FFC0
7FC0
ENDCHAR
STARTCHAR 041F
ENCODING 1055
SWIDTH 720 0
DWIDTH 12 0
BBX 10 12 1 0
BITMAP
FFC0
FFC0
E1C0
E1C0
E1C0
E1C0
E1C0
E1C0
E1C0
E1C0
E1C0
E1C0
ENDCHAR
STARTCHAR 0420
ENCODING 1056
SWIDTH 720 0
DWIDTH 12 0
BBX 11 12 1 0
BITMAP
FF80
FFC0
E1C0
E1E0
E1E0
E1E0
FFC0
FFC0
FF00
E000
E000
E000
ENDCHAR
STARTCHAR 0421
ENCODING 1057
SWIDTH 660 0
DWIDTH 11 0
BBX 9 12 1 0
BITMAP
7F80
FF80
F000
E000
E000
E000
E000
E000
E000
E000
FF80
7F80
ENDCHAR
STARTCHAR 0422
ENCODING 1058
SWIDTH 660 0
DWIDTH 11 0
BBX 10 12 0 0
BITMAP
FFC0
FFC0
0E00
0E00
0E00
0E00
0E00
0E00
0E00
0E00
0E00
0E00
ENDCHAR
STARTCHAR 0423
ENCODING 1059
SWIDTH 720 0
DWIDTH 12 0
BBX 12 12 0 0
BITMAP
E070
F0E0
70E0
39C0
39C0
1FC0
1F80
0F80
0F00
0F00
3E00
3C00
ENDCHAR
STARTCHAR 0424
ENCODING 1060
SWIDTH 900 0
DWIDTH 15 0
BBX 13 12 1 0
BITMAP
0700
7FF0
FFF8
E738
E738
E738
E738
E738
E738
FFF8
FFF0
0700
ENDCHAR
STARTCHAR 0425
ENCODING 1061
SWIDTH 660 0
DWIDTH 11 0
BBX 11 12 0 0
BITMAP
F0E0
71C0
7BC0
3B80
1F00
1F00
1F00
1F00
3B80
7BC0
71C0
F0E0
ENDCHAR
STARTCHAR 0426
ENCODING 1062
SWIDTH 780 0
DWIDTH 13 0
BBX 12 14 1 -2
BITMAP
E1C0
E1C0
E1C0
E1C0
E1C0
E1C0
E1C0
E1C0
E1C0
E1C0
FFF0
FFF0
0070
0070
ENDCHAR
STARTCHAR 0427
ENCODING 1063
SWIDTH 720 0
DWIDTH 12 0
BBX 10 12 1 0
BITMAP
E1C0
E1C0
E1C0
E1C0
E1C0
E1C0
FFC0
FFC0
01C0
01C0
01C0
01C0
ENDCHAR
STARTCHAR 0428
ENCODING 1064
SWIDTH 1020 0
DWIDTH 17 0
BBX 15 12 1 0
BITMAP
E38E
E38E
E38E
E38E
E38E
E38E
E38E
E38E
E38E
E38E
FFFE
FFFE
ENDCHAR
STARTCHAR 0429
ENCODING 1065
SWIDTH 1080 0
DWIDTH 18 0
BBX 16 14 1 -2
BITMAP
E38E
E38E
E38E
E38E
E38E
E38E
E38E
E38E
E38E
E38E
FFFF
FFFF
0007
0007
ENDCHAR
STARTCHAR 042A
ENCODING 1066
SWIDTH 840 0
DWIDTH 14 0
BBX 13 12 0 0
BITMAP
FC00
FC00
1C00
1C00
1FF0
1FF8
1FF8
1C38
1C38
1C38
1FF8
1FF0
ENDCHAR
STARTCHAR 042B
ENCODING 1067
SWIDTH 1020 0
DWIDTH 17 0
BBX 15 12 1 0
BITMAP
E00E
E00E
E00E
E00E
FF8E
FFCE
FFCE
E1CE
E1CE
E1CE
FFCE
FF8E
ENDCHAR
STARTCHAR 042C
ENCODING 1068
SWIDTH 720 0
DWIDTH 12 0
BBX 11 12 1 0
BITMAP
E000
E000
E000
E000
FF80
FFC0
FFC0
E1E0
E1E0
E1E0
FFC0
FF80
ENDCHAR
STARTCHAR 042D
ENCODING 1069
SWIDTH 660 0
DWIDTH 11 0
BBX 10 12 0 0
BITMAP
7F00
7F80
03C0
01C0
01C0
3FC0
3FC0
01C0
01C0
01C0
FFC0
FF80
ENDCHAR
STARTCHAR 042E
ENCODING 1070
SWIDTH 960 0
DWIDTH 16 0
BBX 15 12 1 0
BITMAP
E3FC
E7FE
E71E
E70E
E70E
FF0E
FF0E
E70E
E70E
E70E
E7FE
E3FC
ENDCHAR
STARTCHAR 042F
ENCODING 1071
SWIDTH 720 0
DWIDTH 12 0
BBX 10 12 1 0
BITMAP
7FC0
FFC0
F1C0
E1C0
E1C0
E1C0
FFC0
7FC0
79C0
71C0
F1C0
E1C0
ENDCHAR
STARTCHAR 0430
ENCODING 1072
SWIDTH 600 0
DWIDTH 10 0
BBX 9 9 0 0
BITMAP
7F80
7F80
0380
3F80
7F80
F380
E380
7F80
7D80
ENDCHAR
STARTCHAR 0431
ENCODING 1073
SWIDTH 600 0
DWIDTH 10 0
BBX 9 12 1 0
BITMAP
3F80
FF80
F800
E000
FF00
FF80
F780
E380
E380
E380
FF80
FF00
ENDCHAR
STARTCHAR 0432
ENCODING 1074
SWIDTH 600 0
DWIDTH 10 0
BBX 9 9 1 0
BITMAP
FE00
FF00
E700
E700
FF00
FF80
E380
FF80
FF00
ENDCHAR
STARTCHAR 0433
ENCODING 1075
SWIDTH 480 0
DWIDTH 8 0
BBX 7 9 1 0
BITMAP
FE
FE
E0
E0
E0
E0
E0
E0
E0
ENDCHAR
STARTCHAR 0434
ENCODING 1076
SWIDTH 720 0
DWIDTH 12 0
BBX 11 11 0 -2
BITMAP
3FC0
3FC0
39C0
39C0
39C0
39C0
71C0
FFE0
FFE0
E0E0
E060
ENDCHAR
STARTCHAR 0435
ENCODING 1077
SWIDTH 600 0
DWIDTH 10 0
BBX 9 9 1 0
BITMAP
FF00
FF00
E380
E380
FF80
FF80
E000
FF00
FF00
ENDCHAR
STARTCHAR 0436
ENCODING 1078
SWIDTH 900 0
DWIDTH 15 0
BBX 15 9 0 0
BITMAP
E39E
F39E
7BB8
3FF8
1FF0
3FF8
7BB8
739C
F39E
ENDCHAR
STARTCHAR 0437
ENCODING 1079
SWIDTH 540 0
DWIDTH 9 0
BBX 9 9 0 0
BITMAP
7F00
7F80
0380
3F00
3F00
3F80
0380
FF80
FF00
ENDCHAR
STARTCHAR 0438
ENCODING 1080
SWIDTH 660 0
DWIDTH 11 0
BBX 9 9 1 0
BITMAP
E780
E780
EF80
EF80
FF80
FB80
F380
F380
E380
ENDCHAR
STARTCHAR 0439
ENCODING 1081
SWIDTH 660 0
DWIDTH 11 0
BBX 9 13 1 0
BITMAP
6600
7E00
3E00
0000
E780
E780
EF80
EF80
FF80
FB80
F380
F380
E380
ENDCHAR
STARTCHAR 043A
ENCODING 1082
SWIDTH 600 0
DWIDTH 10 0
BBX 9 9 1 0
BITMAP
E380
E780
E700
FE00
FE00
FE00
E700
E700
E380
ENDCHAR
STARTCHAR 043B
ENCODING 1083
SWIDTH 660 0
DWIDTH 11 0
BBX 10 9 0 0
BITMAP
3FC0
3FC0
39C0
39C0
39C0
31C0
71C0
F1C0
F1C0
ENDCHAR
STARTCHAR 043C
ENCODING 1084
SWIDTH 780 0
DWIDTH 13 0
BBX 11 9 1 0
BITMAP
E0E0
F1E0
F1E0
FBE0
FBE0
FFE0
EEE0
E0E0
E0E0
ENDCHAR
STARTCHAR 043D
ENCODING 1085
SWIDTH 660 0
DWIDTH 11 0
BBX 9 9 1 0
BITMAP
E380
E380
E380
FF80
FF80
FF80
E380
E380
E380
ENDCHAR
STARTCHAR 043E
ENCODING 1086
SWIDTH 660 0
DWIDTH 11 0
BBX 9 9 1 0
BITMAP
FF00
FF80
E380
E380
E380
E380
E380
FF80
FF00
ENDCHAR
STARTCHAR 043F
ENCODING 1087
SWIDTH 660 0
DWIDTH 11 0
BBX 9 9 1 0
BITMAP
FF80
FF80
E380
E380
E380
E380
E380
E380
E380
ENDCHAR
STARTCHAR 0440
ENCODING 1088
SWIDTH 660 0
DWIDTH 11 0
BBX 9 12 1 -3
BITMAP
FF00
FF80
E380
E380
E380
E380
E380
FF80
FF00
E000
E000
E000
ENDCHAR
STARTCHAR 0441
ENCODING 1089
SWIDTH 540 0
DWIDTH 9 0
BBX 8 9 1 0
BITMAP
7F
FF
E0
E0
E0
E0
E0
FF
FF
ENDCHAR
STARTCHAR 0442
ENCODING 1090
SWIDTH 540 0
DWIDTH 9 0
BBX 9 9 0 0
BITMAP
FF80
FF80
1C00
1C00
1C00
1C00
1C00
1C00
1C00
ENDCHAR
STARTCHAR 0443
ENCODING 1091
SWIDTH 600 0
DWIDTH 10 0
BBX 10 12 0 -3
BITMAP
E1C0
F380
7380
7380
3F00
3F00
1F00
1E00
1E00
1E00
7C00
7800
ENDCHAR
STARTCHAR 0444
ENCODING 1092
SWIDTH 840 0
DWIDTH 14 0
BBX 12 15 1 -3
BITMAP
0E00
0E00
0E00
7FE0
FFF0
E670
E670
E670
E670
E670
FFF0
7FE0
0E00
0E00
0E00
ENDCHAR
STARTCHAR 0445
ENCODING 1093
SWIDTH 600 0
DWIDTH 10 0
BBX 10 9 0 0
BITMAP
F3C0
7380
3F00
3F00
1E00
3F00
7F00
7380
E3C0
ENDCHAR
STARTCHAR 0446
ENCODING 1094
SWIDTH 660 0
DWIDTH 11 0
BBX 10 11 1 -2
BITMAP
E380
E380
E380
E380
E380
E380
E380
FFC0
FFC0
01C0
01C0
ENDCHAR
STARTCHAR 0447
ENCODING 1095
SWIDTH 600 0
DWIDTH 10 0
BBX 9 9 1 0
BITMAP
E380
E380
E380
E380
FF80
FF80
0380
0380
0380
ENDCHAR
STARTCHAR 0448
ENCODING 1096
SWIDTH 900 0
DWIDTH 15 0
BBX 13 9 1 0
BITMAP
E738
E738
E738
E738
E738
E738
E738
FFF8
FFF8
ENDCHAR
STARTCHAR 0449
ENCODING 1097
SWIDTH 900 0
DWIDTH 15 0
BBX 14 11 1 -2
BITMAP
E738
E738
E738
E738
E738
E738
E738
FFFC
FFFC
001C
001C
ENDCHAR
STARTCHAR 044A
ENCODING 1098
SWIDTH 720 0
DWIDTH 12 0
BBX 12 9 0 0
BITMAP
FC00
FC00
1C00
1FE0
1FE0
1C70
1C70
1FE0
1FE0
ENDCHAR
STARTCHAR 044B
ENCODING 1099
SWIDTH 900 0
DWIDTH 15 0
BBX 13 9 1 0
BITMAP
E038
E038
E038
FF38
FFB8
E3B8
E3B8
FFB8
FF38
ENDCHAR
STARTCHAR 044C
ENCODING 1100
SWIDTH 600 0
DWIDTH 10 0
BBX 9 9 1 0
BITMAP
E000
E000
E000
FF00
FF80
E380
E380
FF80
FF00
ENDCHAR
STARTCHAR 044D
ENCODING 1101
SWIDTH 540 0
DWIDTH 9 0
BBX 8 9 1 0
BITMAP
FE
FE
07
7F
7F
7F
07
FF
FE
ENDCHAR
STARTCHAR 044E
ENCODING 1102
SWIDTH 840 0
DWIDTH 14 0
BBX 13 9 1 0
BITMAP
E7F0
EFF8
EE38
FE38
FE38
FE38
EE38
EFF8
E7F0
ENDCHAR
STARTCHAR 044F
ENCODING 1103
SWIDTH 660 0
DWIDTH 11 0
BBX 9 9 1 0
BITMAP
7F80
FF80
E380
E380
FF80
FF80
7380
F380
E380
ENDCHAR
STARTCHAR 0451
ENCODING 1105
SWIDTH 600 0
DWIDTH 10 0
BBX 9 12 1 0
BITMAP
7700
7700
0000
FF00
FF00
E380
E380
FF80
FF80
E000
FF00
FF00
ENDCHAR
STARTCHAR 0452
ENCODING 1106
SWIDTH 660 0
DWIDTH 11 0
BBX 11 12 0 0
BITMAP
3000
FC00
FC00
FC00
7780
7FC0
7FE0
70E0
70E0
71E0
73C0
73C0
ENDCHAR
STARTCHAR 0453
ENCODING 1107
SWIDTH 480 0
DWIDTH 8 0
BBX 7 13 1 0
BITMAP
1C
18
38
00
FE
FE
E0
E0
E0
E0
E0
E0
E0
ENDCHAR
STARTCHAR 0454
ENCODING 1108
SWIDTH 540 0
DWIDTH 9 0
BBX 8 9 1 0
BITMAP
7F
FF
E0
FC
FC
FC
E0
FF
FF
ENDCHAR
STARTCHAR 0455
ENCODING 1109
SWIDTH 600 0
DWIDTH 10 0
BBX 10 9 0 0
BITMAP
7F80
7F80
E000
FF00
7F80
3F80
01C0
7F80
7F80
ENDCHAR
STARTCHAR 0456
ENCODING 1110
SWIDTH 300 0
DWIDTH 5 0
BBX 5 12 0 0
BITMAP
38
38
00
F8
F8
F8
38
38
38
38
38
38
ENDCHAR
STARTCHAR 0457
ENCODING 1111
SWIDTH 360 0
DWIDTH 6 0
BBX 7 12 -1 0
BITMAP
EE
EE
00
3C
3C
3C
1C
1C
1C
1C
1C
1C
ENDCHAR
STARTCHAR 0458
ENCODING 1112
SWIDTH 300 0
DWIDTH 5 0
BBX 6 15 -2 -3
BITMAP
1C
1C
00
1C
1C
1C
1C
1C
1C
1C
1C
1C
1C
FC
F8
ENDCHAR
STARTCHAR 0459
ENCODING 1113
SWIDTH 900 0
DWIDTH 15 0
BBX 15 9 0 0
BITMAP
3F80
3F80
3980
39FC
39FE
318E
718E
F1FE
F1FC
ENDCHAR
STARTCHAR 045A
ENCODING 1114
SWIDTH 900 0
DWIDTH 15 0
BBX 14 9 1 0
BITMAP
E700
E700
E700
FFF8
FFFC
E71C
E71C
E7FC
E7F8
ENDCHAR
STARTCHAR 045B
ENCODING 1115
SWIDTH 660 0
DWIDTH 11 0
BBX 11 12 0 0
BITMAP
3000
FC00
FC00
FC00
7780
7FC0
7FE0
70E0
70E0
70E0
70E0
70E0
ENDCHAR
STARTCHAR 045C
ENCODING 1116
SWIDTH 600 0
DWIDTH 10 0
BBX 9 13 1 0
BITMAP
0E00
0C00
1C00
0000
E380
E780
E700
FE00
FE00
FE00
E700
E700
E380
ENDCHAR
STARTCHAR 045E
ENCODING 1118
SWIDTH 600 0
DWIDTH 10 0
BBX 10 15 0 -3
BITMAP
3300
3F00
0000
E1C0
F380
7380
7380
3F00
3F00
1F00
1E00
1E00
1E00
7C00
7800
ENDCHAR
STARTCHAR 045F
ENCODING 1119
SWIDTH 660 0
DWIDTH 11 0
BBX 9 11 1 -2
BITMAP
E380
E380
E380
E380
E380
E380
E380
FF80
FF80
1C00
1C00
ENDCHAR
STARTCHAR 0490
ENCODING 1168
SWIDTH 600 0
DWIDTH 10 0
BBX 9 14 1 0
BITMAP
0180
0380
FF80
FF80
E000
E000
E000
E000
E000
E000
E000
E000
E000
E000
ENDCHAR
STARTCHAR 0491
ENCODING 1169
SWIDTH 480 0
DWIDTH 8 0
BBX 7 11 1 0
BITMAP
06
0E
FE
FE
E0
E0
E0
E0
E0
E0
E0
ENDCHAR
STARTCHAR 2013
ENCODING 8211
SWIDTH 660 0
DWIDTH 11 0
BBX 9 2 1 5
BITMAP
FF80
FF80
ENDCHAR
STARTCHAR 2014
ENCODING 8212
SWIDTH 840 0
DWIDTH 14 0
BBX 12 2 1 5
BITMAP
FFF0
FFF0
ENDCHAR
STARTCHAR 2018
ENCODING 8216
SWIDTH 240 0
DWIDTH 4 0
BBX 3 4 1 8
BITMAP
C0
C0
E0
E0
ENDCHAR
STARTCHAR 2019
ENCODING 8217
SWIDTH 240 0
DWIDTH 4 0
BBX 3 4 1 8
BITMAP
E0
E0
E0
C0
ENDCHAR
STARTCHAR 201A
ENCODING 8218
SWIDTH 240 0
DWIDTH 4 0
BBX 3 5 1 -2
BITMAP
E0
E0
E0
C0
C0
ENDCHAR
STARTCHAR 201C
ENCODING 8220
SWIDTH 480 0
DWIDTH 8 0
BBX 6 4 1 8
BITMAP
CC
C8
FC
FC
ENDCHAR
STARTCHAR 201D
ENCODING 8221
SWIDTH 480 0
DWIDTH 8 0
BBX 6 4 1 8
BITMAP
FC
FC
FC
CC
ENDCHAR
STARTCHAR 201E
ENCODING 8222
SWIDTH 480 0
DWIDTH 8 0
BBX 6 5 1 -2
BITMAP
FC
FC
FC
CC
C8
ENDCHAR
STARTCHAR 2020
ENCODING 8224
SWIDTH 600 0
DWIDTH 10 0
BBX 10 15 0 -3
BITMAP
0E00
0E00
0E00
0E00
FFC0
FFC0
0E00
0E00
0E00
0E00
0E00
0E00
0E00
0E00
0E00
ENDCHAR
STARTCHAR 2021
ENCODING 8225
SWIDTH 600 0
DWIDTH 10 0
BBX 9 15 0 -3
BITMAP
1C00
1C00
1C00
FF80
FF80
FF80
1C00
1C00
1C00
FF80
FF80
FF80
1C00
1C00
1C00
ENDCHAR
STARTCHAR 2022
ENCODING 8226
SWIDTH 360 0
DWIDTH 6 0
BBX 4 4 1 4
BITMAP
F0
F0
F0
F0
ENDCHAR
STARTCHAR 2026
ENCODING 8230
SWIDTH 720 0
DWIDTH 12 0
BBX 11 3 1 0
BITMAP
EEE0
EEE0
EEE0
ENDCHAR
STARTCHAR 2030
ENCODING 8240
SWIDTH 1260 0
DWIDTH 21 0
BBX 21 12 0 0
BITMAP
7C7000
EC6000
CCE000
CDC000
CD8000
7F8000
037DF0
076DB8
06ED98
0EED98
1C6DB8
1C7DF0
ENDCHAR
STARTCHAR 2039
ENCODING 8249
SWIDTH 360 0
DWIDTH 6 0
BBX 6 9 0 0
BITMAP
08
1C
38
70
E0
70
38
1C
08
ENDCHAR
STARTCHAR 203A
ENCODING 8250
SWIDTH 360 0
DWIDTH 6 0
BBX 6 9 0 0
BITMAP
60
E0
70
38
1C
38
70
E0
40
ENDCHAR
STARTCHAR 2070
ENCODING 8304
SWIDTH 360 0
DWIDTH 6 0
BBX 6 6 0 6
BITMAP
7C
EC
CC
CC
CC
7C
ENDCHAR
STARTCHAR 2074
ENCODING 8308
SWIDTH 360 0
DWIDTH 6 0
BBX 6 6 0 6
BITMAP
30
60
78
FC
FC
18
ENDCHAR
STARTCHAR 20AC
ENCODING 8364
SWIDTH 660 0
DWIDTH 11 0
BBX 11 12 0 0
BITMAP
1FE0
3FE0
7800
7000
FF80
FF80
FF80
FF80
7000
7800
3FE0
3FE0
ENDCHAR
STARTCHAR 2116
ENCODING 8470
SWIDTH 1140 0
DWIDTH 19 0
BBX 17 12 1 0
BITMAP
E1CF80
F1DD80
F9D980
F9D980
FDDD80
FDCF80
EFC000
E7CF80
E7CF80
E3C000
E3C000
E1C000
ENDCHAR
STARTCHAR 2122
ENCODING 8482
SWIDTH 960 0
DWIDTH 16 0
BBX 15 6 0 6
BITMAP
FD86
FDCE
31EE
31FE
31B6
3186
ENDCHAR
ENDFONT
